<svg id="svg" xmlns="http://www.w3.org/2000/svg" xmlns:xlink="http://www.w3.org/1999/xlink" width="400" height="73.4059097978227" viewBox="0, 0, 400,73.4059097978227"><g id="svgg"><path id="path0" d="M184.106 6.680 C 183.986 6.711,183.888 6.817,183.888 6.914 C 183.888 7.046,183.713 7.092,183.204 7.092 C 182.602 7.092,182.519 7.122,182.519 7.341 C 182.519 7.548,182.436 7.589,182.022 7.589 C 181.662 7.589,181.524 7.641,181.524 7.776 C 181.524 7.879,181.418 7.963,181.288 7.963 C 181.020 7.963,180.280 8.566,180.280 8.785 C 180.280 8.864,180.168 8.958,180.031 8.994 C 179.850 9.041,179.782 9.164,179.782 9.444 C 179.782 9.746,179.729 9.829,179.533 9.829 C 179.368 9.829,179.285 9.912,179.285 10.078 C 179.285 10.215,179.207 10.327,179.112 10.327 C 178.894 10.327,178.791 10.712,178.789 11.540 C 178.787 12.037,178.742 12.193,178.600 12.193 C 178.438 12.193,178.414 12.704,178.414 16.046 L 178.414 19.900 176.579 19.934 L 174.743 19.969 174.710 23.608 L 174.677 27.247 176.546 27.247 L 178.414 27.247 178.414 43.546 L 178.414 59.844 183.390 59.844 L 188.367 59.844 188.367 43.546 L 188.367 27.247 190.171 27.247 L 191.975 27.247 191.975 23.577 L 191.975 19.907 190.171 19.907 L 188.367 19.907 188.367 17.854 C 188.367 16.058,188.392 15.801,188.565 15.801 C 188.674 15.801,188.793 15.689,188.829 15.552 C 188.864 15.415,188.971 15.303,189.066 15.303 C 189.160 15.303,189.238 15.219,189.238 15.117 C 189.238 14.975,189.391 14.930,189.872 14.930 C 190.401 14.930,190.516 14.889,190.570 14.681 C 190.625 14.471,190.740 14.432,191.305 14.432 L 191.975 14.432 191.975 10.762 L 191.975 7.092 191.554 7.092 C 191.238 7.092,191.117 7.030,191.068 6.843 C 191.006 6.604,184.938 6.462,184.106 6.680 M203.266 6.680 C 203.146 6.711,203.048 6.817,203.048 6.914 C 203.048 7.046,202.874 7.092,202.364 7.092 C 201.763 7.092,201.680 7.122,201.680 7.341 C 201.680 7.548,201.597 7.589,201.182 7.589 C 200.823 7.589,200.684 7.641,200.684 7.776 C 200.684 7.880,200.574 7.963,200.435 7.963 C 200.045 7.963,198.942 9.094,198.942 9.495 C 198.942 9.746,198.881 9.829,198.694 9.829 C 198.528 9.829,198.445 9.912,198.445 10.078 C 198.445 10.215,198.367 10.327,198.271 10.327 C 198.028 10.327,197.947 10.607,197.947 11.457 C 197.947 12.028,197.905 12.193,197.760 12.193 C 197.599 12.193,197.574 12.704,197.574 16.046 L 197.574 19.900 195.739 19.934 L 193.904 19.969 193.871 23.608 L 193.838 27.247 195.706 27.247 L 197.574 27.247 197.574 43.547 L 197.574 59.847 202.519 59.815 L 207.465 59.782 207.497 43.515 L 207.528 27.247 209.332 27.247 L 211.135 27.247 211.135 23.577 L 211.135 19.907 209.331 19.907 L 207.527 19.907 207.527 17.854 C 207.527 16.058,207.552 15.801,207.725 15.801 C 207.835 15.801,207.953 15.689,207.989 15.552 C 208.025 15.415,208.131 15.303,208.226 15.303 C 208.321 15.303,208.398 15.219,208.398 15.117 C 208.398 14.975,208.551 14.930,209.032 14.930 C 209.561 14.930,209.676 14.889,209.731 14.681 C 209.786 14.471,209.900 14.432,210.466 14.432 L 211.135 14.432 211.135 10.762 L 211.135 7.092 210.714 7.092 C 210.398 7.092,210.277 7.030,210.228 6.843 C 210.166 6.604,204.098 6.462,203.266 6.680 M281.431 33.467 L 281.431 59.844 286.408 59.844 L 291.385 59.844 291.353 33.499 L 291.322 7.154 286.376 7.121 L 281.431 7.089 281.431 33.467 M298.227 11.631 L 298.227 16.169 298.507 16.239 C 298.947 16.349,308.023 16.249,308.139 16.133 C 308.255 16.017,308.355 7.810,308.246 7.372 L 308.176 7.092 303.201 7.092 L 298.227 7.092 298.227 11.631 M87.750 19.285 C 87.692 19.505,87.580 19.533,86.766 19.533 C 86.033 19.533,85.848 19.571,85.848 19.720 C 85.848 19.855,85.709 19.907,85.350 19.907 C 85.018 19.907,84.769 19.990,84.603 20.156 C 84.467 20.292,84.209 20.404,84.032 20.404 C 83.814 20.404,83.688 20.485,83.644 20.653 C 83.608 20.791,83.474 20.902,83.345 20.902 C 83.216 20.902,83.110 20.980,83.110 21.075 C 83.110 21.174,82.924 21.282,82.675 21.329 C 82.414 21.378,82.240 21.484,82.240 21.592 C 82.240 21.691,82.128 21.773,81.991 21.773 C 81.825 21.773,81.742 21.856,81.742 22.022 C 81.742 22.167,81.659 22.271,81.544 22.271 C 81.435 22.271,81.316 22.383,81.280 22.519 C 81.244 22.656,81.138 22.768,81.043 22.768 C 80.929 22.768,80.871 22.916,80.871 23.204 C 80.871 23.556,80.824 23.639,80.622 23.639 C 80.461 23.639,80.373 23.722,80.373 23.874 C 80.373 24.003,80.262 24.137,80.124 24.173 C 79.943 24.220,79.876 24.343,79.876 24.623 C 79.876 24.882,79.815 25.008,79.689 25.008 C 79.560 25.008,79.502 25.137,79.502 25.429 C 79.502 25.745,79.440 25.866,79.253 25.915 C 79.063 25.965,79.005 26.084,79.005 26.427 C 79.005 26.725,78.947 26.874,78.833 26.874 C 78.620 26.874,78.511 27.256,78.509 28.012 C 78.508 28.409,78.449 28.612,78.320 28.661 C 78.174 28.717,78.134 28.972,78.134 29.856 C 78.134 30.897,78.115 30.980,77.885 30.980 C 77.644 30.980,77.636 31.063,77.636 33.717 C 77.636 35.974,77.606 36.454,77.463 36.454 C 77.018 36.454,76.945 43.921,77.387 44.197 C 77.624 44.345,77.636 44.487,77.636 47.059 C 77.636 49.684,77.644 49.767,77.885 49.767 C 78.115 49.767,78.134 49.850,78.134 50.886 C 78.134 51.799,78.168 52.006,78.320 52.006 C 78.462 52.006,78.507 52.160,78.507 52.640 C 78.507 53.169,78.548 53.284,78.756 53.339 C 78.951 53.390,79.005 53.508,79.005 53.887 C 79.005 54.287,79.047 54.370,79.253 54.370 C 79.455 54.370,79.502 54.453,79.502 54.806 C 79.502 55.110,79.559 55.241,79.689 55.241 C 79.820 55.241,79.876 55.374,79.876 55.688 C 79.876 56.031,79.934 56.150,80.124 56.200 C 80.299 56.246,80.373 56.370,80.373 56.616 C 80.373 56.857,80.451 56.991,80.622 57.045 C 80.759 57.089,80.871 57.204,80.871 57.302 C 80.871 57.400,80.948 57.481,81.043 57.481 C 81.138 57.481,81.244 57.593,81.280 57.729 C 81.316 57.866,81.435 57.978,81.544 57.978 C 81.653 57.978,81.742 58.056,81.742 58.152 C 81.742 58.339,82.002 58.476,82.360 58.476 C 82.483 58.476,82.613 58.588,82.649 58.725 C 82.685 58.862,82.803 58.974,82.912 58.974 C 83.021 58.974,83.110 59.058,83.110 59.160 C 83.110 59.289,83.240 59.347,83.531 59.347 C 83.848 59.347,83.968 59.409,84.017 59.596 C 84.067 59.784,84.187 59.844,84.515 59.844 C 84.843 59.844,84.963 59.905,85.013 60.093 C 85.067 60.301,85.182 60.342,85.712 60.342 C 86.192 60.342,86.345 60.387,86.345 60.529 C 86.345 60.685,86.600 60.715,87.892 60.715 C 89.330 60.715,89.444 60.733,89.518 60.964 C 89.593 61.199,89.706 61.213,91.579 61.213 C 93.478 61.213,93.561 61.203,93.561 60.964 C 93.561 60.729,93.644 60.715,95.121 60.715 C 96.392 60.715,96.693 60.681,96.751 60.529 C 96.802 60.397,97.007 60.342,97.443 60.342 C 97.959 60.342,98.075 60.300,98.129 60.093 C 98.178 59.906,98.299 59.844,98.615 59.844 C 98.953 59.844,99.036 59.795,99.036 59.596 C 99.036 59.394,99.119 59.347,99.471 59.347 C 99.760 59.347,99.907 59.289,99.907 59.174 C 99.907 59.075,100.093 58.966,100.342 58.920 C 100.603 58.871,100.778 58.765,100.778 58.657 C 100.778 58.557,100.890 58.476,101.026 58.476 C 101.192 58.476,101.275 58.393,101.275 58.227 C 101.275 58.061,101.358 57.978,101.524 57.978 C 101.661 57.978,101.773 57.925,101.773 57.859 C 101.773 57.705,102.371 57.107,102.525 57.107 C 102.590 57.107,102.644 56.911,102.644 56.672 C 102.644 56.319,102.691 56.236,102.893 56.236 C 103.059 56.236,103.142 56.153,103.142 55.988 C 103.142 55.851,103.220 55.739,103.315 55.739 C 103.515 55.739,103.639 55.474,103.639 55.044 C 103.639 54.860,103.711 54.743,103.826 54.743 C 103.956 54.743,104.012 54.612,104.012 54.308 C 104.012 54.019,104.071 53.872,104.186 53.872 C 104.403 53.872,104.510 53.602,104.510 53.054 C 104.510 52.794,104.607 52.531,104.759 52.379 C 104.964 52.175,105.008 51.965,105.008 51.198 C 105.008 50.451,105.045 50.264,105.194 50.264 C 105.354 50.264,105.381 49.927,105.381 47.977 C 105.381 45.795,105.392 45.687,105.630 45.625 C 105.874 45.561,105.879 45.455,105.879 40.144 C 105.879 34.838,105.874 34.727,105.630 34.650 C 105.393 34.575,105.381 34.462,105.381 32.340 C 105.381 30.440,105.353 30.109,105.194 30.109 C 105.045 30.109,105.008 29.922,105.008 29.176 C 105.008 28.326,104.986 28.243,104.759 28.243 C 104.538 28.243,104.510 28.160,104.510 27.506 C 104.510 26.657,104.429 26.376,104.186 26.376 C 104.071 26.376,104.012 26.230,104.012 25.941 C 104.012 25.637,103.956 25.505,103.826 25.505 C 103.695 25.505,103.639 25.373,103.639 25.058 C 103.639 24.716,103.581 24.596,103.390 24.546 C 103.212 24.499,103.142 24.376,103.142 24.111 C 103.142 23.845,103.071 23.722,102.893 23.675 C 102.755 23.639,102.644 23.506,102.644 23.376 C 102.644 23.247,102.566 23.142,102.472 23.142 C 102.377 23.142,102.270 23.030,102.235 22.893 C 102.199 22.756,102.080 22.644,101.971 22.644 C 101.862 22.644,101.773 22.560,101.773 22.457 C 101.773 22.354,101.662 22.271,101.524 22.271 C 101.358 22.271,101.275 22.188,101.275 22.022 C 101.275 21.885,101.205 21.773,101.119 21.773 C 101.032 21.773,100.892 21.661,100.806 21.524 C 100.707 21.365,100.516 21.275,100.279 21.275 C 100.031 21.275,99.907 21.213,99.907 21.089 C 99.907 20.986,99.801 20.902,99.672 20.902 C 99.543 20.902,99.409 20.791,99.373 20.653 C 99.326 20.472,99.203 20.404,98.923 20.404 C 98.678 20.404,98.538 20.342,98.538 20.232 C 98.538 20.036,98.165 19.911,97.574 19.908 C 97.298 19.907,97.170 19.847,97.170 19.720 C 97.170 19.568,96.962 19.533,96.050 19.533 C 95.013 19.533,94.930 19.515,94.930 19.285 C 94.930 19.042,94.847 19.036,91.372 19.036 C 87.920 19.036,87.813 19.043,87.750 19.285 M126.407 19.285 C 126.407 19.503,126.325 19.533,125.723 19.533 C 125.198 19.533,125.039 19.577,125.039 19.720 C 125.039 19.850,124.908 19.907,124.603 19.907 C 124.251 19.907,124.168 19.954,124.168 20.156 C 124.168 20.351,124.085 20.404,123.783 20.404 C 123.503 20.404,123.380 20.472,123.333 20.653 C 123.297 20.791,123.163 20.902,123.034 20.902 C 122.905 20.902,122.799 20.986,122.799 21.089 C 122.799 21.191,122.710 21.275,122.601 21.275 C 122.492 21.275,122.375 21.382,122.341 21.513 C 122.307 21.643,122.172 21.778,122.041 21.812 C 121.911 21.846,121.804 21.963,121.804 22.072 C 121.804 22.181,121.726 22.271,121.630 22.271 C 121.499 22.271,121.446 22.016,121.412 21.223 C 121.388 20.647,121.322 20.129,121.265 20.073 C 121.149 19.957,112.073 19.857,111.633 19.966 L 111.353 20.036 111.353 39.940 L 111.353 59.844 116.392 59.844 L 121.431 59.844 121.431 46.532 C 121.431 34.781,121.453 33.219,121.617 33.219 C 121.775 33.219,121.804 32.936,121.804 31.415 C 121.804 29.878,121.832 29.611,121.995 29.611 C 122.099 29.611,122.221 29.513,122.265 29.393 C 122.309 29.274,122.419 29.131,122.510 29.076 C 122.601 29.022,122.675 28.812,122.675 28.610 C 122.675 28.304,122.726 28.243,122.976 28.243 C 123.405 28.243,123.670 28.119,123.670 27.918 C 123.670 27.782,123.925 27.745,124.852 27.745 C 125.804 27.745,126.034 27.780,126.034 27.926 C 126.034 28.034,126.209 28.140,126.470 28.189 C 126.719 28.235,126.905 28.344,126.905 28.443 C 126.905 28.538,126.983 28.616,127.078 28.616 C 127.177 28.616,127.286 28.802,127.332 29.051 C 127.381 29.312,127.487 29.487,127.595 29.487 C 127.720 29.487,127.776 29.626,127.776 29.934 C 127.776 30.276,127.834 30.396,128.025 30.446 C 128.254 30.506,128.274 30.616,128.274 31.865 C 128.274 32.986,128.306 33.219,128.460 33.219 C 128.625 33.219,128.647 34.781,128.647 46.532 L 128.647 59.844 133.188 59.844 L 137.729 59.844 137.729 47.714 C 137.729 37.014,137.707 35.583,137.543 35.583 C 137.382 35.583,137.356 35.135,137.356 32.296 C 137.356 28.920,137.329 28.616,137.032 28.616 C 136.892 28.616,136.858 28.271,136.858 26.812 C 136.858 25.091,136.847 25.008,136.610 25.008 C 136.379 25.008,136.361 24.925,136.361 23.884 C 136.361 23.000,136.321 22.745,136.174 22.689 C 136.059 22.645,135.988 22.456,135.988 22.195 C 135.988 21.856,135.939 21.773,135.739 21.773 C 135.573 21.773,135.490 21.690,135.490 21.524 C 135.490 21.358,135.407 21.275,135.241 21.275 C 135.103 21.275,134.992 21.192,134.992 21.089 C 134.992 20.986,134.908 20.902,134.806 20.902 C 134.702 20.902,134.619 20.791,134.619 20.653 C 134.619 20.487,134.536 20.404,134.370 20.404 C 134.233 20.404,134.121 20.326,134.121 20.231 C 134.121 20.041,133.860 19.907,133.489 19.907 C 133.358 19.907,133.250 19.823,133.250 19.720 C 133.250 19.586,133.114 19.533,132.767 19.533 C 132.389 19.533,132.270 19.480,132.219 19.285 C 132.156 19.045,132.049 19.036,129.281 19.036 C 126.490 19.036,126.407 19.043,126.407 19.285 M153.815 19.285 C 153.758 19.505,153.646 19.533,152.832 19.533 C 152.137 19.533,151.913 19.575,151.913 19.704 C 151.913 19.815,151.709 19.897,151.329 19.940 C 151.003 19.977,150.682 20.093,150.600 20.205 C 150.520 20.315,150.302 20.404,150.115 20.404 C 149.879 20.404,149.755 20.481,149.709 20.653 C 149.673 20.791,149.540 20.902,149.410 20.902 C 149.281 20.902,149.176 20.986,149.176 21.089 C 149.176 21.192,149.065 21.275,148.927 21.275 C 148.790 21.275,148.576 21.378,148.451 21.503 C 148.326 21.627,148.130 21.766,148.015 21.810 C 147.901 21.854,147.807 21.975,147.807 22.080 C 147.807 22.185,147.723 22.271,147.621 22.271 C 147.518 22.271,147.434 22.353,147.434 22.453 C 147.434 22.553,147.322 22.695,147.185 22.768 C 147.022 22.855,146.936 23.029,146.936 23.270 C 146.936 23.556,146.880 23.639,146.687 23.639 C 146.522 23.639,146.439 23.722,146.439 23.888 C 146.439 24.026,146.356 24.137,146.252 24.137 C 146.122 24.137,146.065 24.268,146.065 24.572 C 146.065 24.925,146.018 25.008,145.816 25.008 C 145.617 25.008,145.568 25.091,145.568 25.429 C 145.568 25.745,145.506 25.866,145.319 25.915 C 145.128 25.965,145.070 26.084,145.070 26.427 C 145.070 26.741,145.015 26.874,144.883 26.874 C 144.736 26.874,144.697 27.052,144.697 27.730 C 144.697 28.482,144.666 28.595,144.448 28.652 C 144.222 28.711,144.199 28.822,144.199 29.848 C 144.199 30.897,144.181 30.980,143.950 30.980 C 143.709 30.980,143.701 31.063,143.701 33.717 C 143.701 36.067,143.675 36.454,143.515 36.454 C 143.353 36.454,143.328 36.966,143.328 40.315 C 143.328 43.632,143.354 44.186,143.515 44.247 C 143.673 44.308,143.701 44.736,143.701 47.043 C 143.701 49.684,143.709 49.767,143.950 49.767 C 144.181 49.767,144.199 49.850,144.199 50.886 C 144.199 51.923,144.217 52.006,144.448 52.006 C 144.667 52.006,144.697 52.089,144.697 52.691 C 144.697 53.216,144.740 53.375,144.883 53.375 C 145.018 53.375,145.070 53.513,145.070 53.872 C 145.070 54.287,145.111 54.370,145.319 54.370 C 145.520 54.370,145.568 54.453,145.568 54.806 C 145.568 55.158,145.615 55.241,145.816 55.241 C 146.024 55.241,146.065 55.324,146.065 55.739 C 146.065 56.098,146.117 56.236,146.252 56.236 C 146.365 56.236,146.439 56.352,146.439 56.530 C 146.439 56.719,146.616 56.974,146.936 57.245 C 147.209 57.477,147.433 57.737,147.433 57.823 C 147.434 57.908,147.504 57.978,147.591 57.978 C 147.677 57.978,147.817 58.090,147.903 58.227 C 148.002 58.386,148.193 58.476,148.430 58.476 C 148.720 58.476,148.802 58.531,148.802 58.725 C 148.802 58.863,148.885 58.974,148.989 58.974 C 149.092 58.974,149.176 59.058,149.176 59.160 C 149.176 59.295,149.314 59.347,149.673 59.347 C 150.088 59.347,150.171 59.388,150.171 59.596 C 150.171 59.795,150.254 59.844,150.592 59.844 C 150.908 59.844,151.029 59.906,151.078 60.093 C 151.132 60.300,151.248 60.342,151.764 60.342 C 152.200 60.342,152.405 60.397,152.456 60.529 C 152.514 60.681,152.815 60.715,154.086 60.715 C 155.562 60.715,155.645 60.729,155.645 60.964 C 155.645 61.203,155.728 61.213,157.636 61.213 C 159.544 61.213,159.627 61.203,159.627 60.964 C 159.627 60.728,159.710 60.715,161.244 60.715 C 162.599 60.715,162.862 60.685,162.862 60.529 C 162.862 60.387,163.015 60.342,163.495 60.342 C 164.024 60.342,164.140 60.301,164.194 60.093 C 164.243 59.906,164.364 59.844,164.680 59.844 C 165.018 59.844,165.101 59.795,165.101 59.596 C 165.101 59.388,165.184 59.347,165.599 59.347 C 165.946 59.347,166.096 59.293,166.096 59.170 C 166.096 59.073,166.264 58.957,166.469 58.912 C 166.674 58.867,166.884 58.760,166.935 58.675 C 166.987 58.589,167.128 58.483,167.247 58.439 C 167.367 58.395,167.465 58.274,167.465 58.169 C 167.465 58.064,167.549 57.978,167.652 57.978 C 167.754 57.978,167.838 57.894,167.838 57.792 C 167.838 57.689,167.927 57.605,168.037 57.605 C 168.146 57.605,168.264 57.493,168.300 57.356 C 168.336 57.219,168.436 57.107,168.524 57.107 C 168.701 57.107,168.834 56.837,168.834 56.475 C 168.834 56.344,168.918 56.236,169.020 56.236 C 169.123 56.236,169.207 56.131,169.207 56.002 C 169.207 55.872,169.318 55.739,169.456 55.703 C 169.644 55.653,169.705 55.533,169.705 55.205 C 169.705 54.877,169.765 54.757,169.953 54.707 C 170.132 54.661,170.202 54.538,170.202 54.271 C 170.202 54.055,170.281 53.869,170.389 53.827 C 170.520 53.777,170.575 53.572,170.575 53.130 C 170.575 52.678,170.624 52.504,170.749 52.504 C 171.003 52.504,171.073 52.219,171.073 51.187 C 171.073 50.450,171.111 50.264,171.260 50.264 C 171.419 50.264,171.446 49.927,171.446 47.977 C 171.446 45.795,171.458 45.687,171.695 45.625 C 171.939 45.561,171.944 45.455,171.944 40.124 C 171.944 34.794,171.939 34.688,171.695 34.624 C 171.458 34.562,171.446 34.454,171.446 32.334 C 171.446 30.439,171.419 30.109,171.260 30.109 C 171.110 30.109,171.073 29.922,171.073 29.176 C 171.073 28.326,171.051 28.243,170.824 28.243 C 170.599 28.243,170.575 28.160,170.575 27.368 C 170.575 26.705,170.530 26.476,170.389 26.421 C 170.281 26.380,170.202 26.194,170.202 25.978 C 170.202 25.711,170.132 25.588,169.953 25.541 C 169.765 25.492,169.705 25.372,169.705 25.044 C 169.705 24.716,169.644 24.595,169.456 24.546 C 169.279 24.500,169.207 24.376,169.207 24.118 C 169.207 23.919,169.128 23.726,169.032 23.689 C 168.937 23.652,168.830 23.514,168.795 23.382 C 168.761 23.250,168.650 23.142,168.549 23.142 C 168.448 23.142,168.336 23.030,168.300 22.893 C 168.264 22.756,168.146 22.644,168.037 22.644 C 167.927 22.644,167.838 22.560,167.838 22.457 C 167.838 22.355,167.761 22.271,167.666 22.271 C 167.571 22.271,167.465 22.159,167.429 22.022 C 167.393 21.885,167.275 21.773,167.166 21.773 C 167.057 21.773,166.967 21.695,166.967 21.600 C 166.967 21.409,166.706 21.275,166.335 21.275 C 166.204 21.275,166.096 21.191,166.096 21.089 C 166.096 20.986,165.998 20.902,165.878 20.902 C 165.757 20.902,165.589 20.790,165.503 20.653 C 165.404 20.494,165.213 20.404,164.976 20.404 C 164.742 20.404,164.603 20.340,164.603 20.232 C 164.603 20.036,164.230 19.911,163.639 19.908 C 163.363 19.907,163.235 19.847,163.235 19.720 C 163.235 19.568,163.027 19.533,162.115 19.533 C 161.078 19.533,160.995 19.515,160.995 19.285 C 160.995 19.042,160.912 19.036,157.438 19.036 C 153.985 19.036,153.878 19.043,153.815 19.285 M224.484 19.285 C 224.426 19.505,224.314 19.533,223.500 19.533 C 222.767 19.533,222.582 19.571,222.582 19.720 C 222.582 19.855,222.443 19.907,222.084 19.907 C 221.752 19.907,221.503 19.990,221.337 20.156 C 221.201 20.292,220.943 20.404,220.766 20.404 C 220.548 20.404,220.422 20.485,220.378 20.653 C 220.342 20.791,220.208 20.902,220.079 20.902 C 219.950 20.902,219.844 20.980,219.844 21.075 C 219.844 21.174,219.658 21.282,219.409 21.329 C 219.148 21.378,218.974 21.484,218.974 21.592 C 218.974 21.691,218.884 21.773,218.775 21.773 C 218.666 21.773,218.548 21.885,218.512 22.022 C 218.476 22.159,218.364 22.271,218.263 22.271 C 218.162 22.271,218.050 22.383,218.014 22.519 C 217.978 22.656,217.872 22.768,217.777 22.768 C 217.663 22.768,217.605 22.916,217.605 23.204 C 217.605 23.556,217.558 23.639,217.356 23.639 C 217.195 23.639,217.107 23.722,217.107 23.874 C 217.107 24.003,216.996 24.137,216.858 24.173 C 216.677 24.220,216.610 24.343,216.610 24.623 C 216.610 24.882,216.549 25.008,216.423 25.008 C 216.294 25.008,216.236 25.137,216.236 25.429 C 216.236 25.745,216.175 25.866,215.988 25.915 C 215.797 25.965,215.739 26.084,215.739 26.427 C 215.739 26.725,215.681 26.874,215.567 26.874 C 215.354 26.874,215.245 27.256,215.243 28.012 C 215.242 28.409,215.183 28.612,215.054 28.661 C 214.908 28.717,214.868 28.972,214.868 29.856 C 214.868 30.897,214.849 30.980,214.619 30.980 C 214.378 30.980,214.370 31.063,214.370 33.717 C 214.370 35.974,214.340 36.454,214.197 36.454 C 213.752 36.454,213.679 43.921,214.121 44.197 C 214.358 44.345,214.370 44.487,214.370 47.059 C 214.370 49.684,214.378 49.767,214.619 49.767 C 214.849 49.767,214.868 49.850,214.868 50.886 C 214.868 51.799,214.902 52.006,215.054 52.006 C 215.196 52.006,215.241 52.160,215.241 52.640 C 215.241 53.169,215.282 53.284,215.490 53.339 C 215.685 53.390,215.739 53.508,215.739 53.887 C 215.739 54.287,215.781 54.370,215.988 54.370 C 216.189 54.370,216.236 54.453,216.236 54.806 C 216.236 55.110,216.293 55.241,216.423 55.241 C 216.554 55.241,216.610 55.374,216.610 55.688 C 216.610 56.031,216.668 56.150,216.858 56.200 C 217.019 56.242,217.107 56.370,217.107 56.561 C 217.107 56.723,217.219 56.926,217.356 57.012 C 217.493 57.097,217.605 57.238,217.605 57.324 C 217.605 57.410,217.689 57.481,217.792 57.481 C 217.894 57.481,217.978 57.566,217.978 57.671 C 217.978 57.776,218.076 57.898,218.196 57.943 C 218.316 57.988,218.487 58.126,218.576 58.250 C 218.666 58.374,218.869 58.476,219.028 58.476 C 219.213 58.476,219.341 58.566,219.383 58.725 C 219.419 58.862,219.537 58.974,219.646 58.974 C 219.755 58.974,219.844 59.058,219.844 59.160 C 219.844 59.289,219.974 59.347,220.265 59.347 C 220.582 59.347,220.703 59.409,220.751 59.596 C 220.801 59.784,220.921 59.844,221.249 59.844 C 221.577 59.844,221.697 59.905,221.747 60.093 C 221.801 60.301,221.916 60.342,222.446 60.342 C 222.926 60.342,223.079 60.387,223.079 60.529 C 223.079 60.685,223.334 60.715,224.626 60.715 C 226.064 60.715,226.179 60.733,226.252 60.964 C 226.327 61.199,226.440 61.213,228.313 61.213 C 230.213 61.213,230.295 61.203,230.295 60.964 C 230.295 60.728,230.378 60.715,231.913 60.715 C 233.268 60.715,233.530 60.685,233.530 60.529 C 233.530 60.387,233.684 60.342,234.164 60.342 C 234.693 60.342,234.809 60.301,234.863 60.093 C 234.912 59.906,235.033 59.844,235.349 59.844 C 235.687 59.844,235.770 59.795,235.770 59.596 C 235.770 59.394,235.853 59.347,236.205 59.347 C 236.494 59.347,236.641 59.289,236.641 59.174 C 236.641 59.075,236.827 58.966,237.076 58.920 C 237.337 58.871,237.512 58.765,237.512 58.657 C 237.512 58.557,237.624 58.476,237.760 58.476 C 237.926 58.476,238.009 58.393,238.009 58.227 C 238.009 58.061,238.092 57.978,238.258 57.978 C 238.396 57.978,238.507 57.895,238.507 57.792 C 238.507 57.689,238.587 57.605,238.685 57.605 C 238.783 57.605,238.899 57.493,238.942 57.356 C 238.986 57.219,239.102 57.107,239.200 57.107 C 239.320 57.107,239.378 56.967,239.378 56.672 C 239.378 56.319,239.425 56.236,239.627 56.236 C 239.793 56.236,239.876 56.153,239.876 55.988 C 239.876 55.851,239.954 55.739,240.049 55.739 C 240.249 55.739,240.373 55.474,240.373 55.044 C 240.373 54.860,240.445 54.743,240.560 54.743 C 240.689 54.743,240.747 54.614,240.747 54.322 C 240.747 54.006,240.808 53.885,240.995 53.836 C 241.203 53.782,241.244 53.667,241.244 53.138 C 241.244 52.681,241.292 52.504,241.416 52.504 C 241.647 52.504,241.738 52.112,241.740 51.104 C 241.741 50.441,241.781 50.264,241.928 50.264 C 242.088 50.264,242.115 49.927,242.115 47.977 C 242.115 45.795,242.126 45.687,242.364 45.625 C 242.608 45.561,242.613 45.455,242.613 40.144 C 242.613 34.838,242.608 34.727,242.364 34.650 C 242.127 34.575,242.115 34.462,242.115 32.340 C 242.115 30.440,242.087 30.109,241.928 30.109 C 241.779 30.109,241.742 29.922,241.742 29.176 C 241.742 28.326,241.720 28.243,241.493 28.243 C 241.268 28.243,241.244 28.160,241.244 27.360 C 241.244 26.582,241.215 26.470,240.995 26.412 C 240.808 26.364,240.747 26.243,240.747 25.926 C 240.747 25.635,240.689 25.505,240.560 25.505 C 240.429 25.505,240.373 25.373,240.373 25.058 C 240.373 24.716,240.315 24.596,240.124 24.546 C 239.946 24.499,239.876 24.376,239.876 24.111 C 239.876 23.845,239.805 23.722,239.627 23.675 C 239.489 23.639,239.378 23.506,239.378 23.376 C 239.378 23.247,239.300 23.142,239.206 23.142 C 239.111 23.142,239.004 23.030,238.969 22.893 C 238.933 22.756,238.814 22.644,238.705 22.644 C 238.596 22.644,238.507 22.560,238.507 22.457 C 238.507 22.354,238.396 22.271,238.258 22.271 C 238.092 22.271,238.009 22.188,238.009 22.022 C 238.009 21.885,237.939 21.773,237.853 21.773 C 237.766 21.773,237.626 21.661,237.541 21.524 C 237.441 21.365,237.250 21.275,237.013 21.275 C 236.765 21.275,236.641 21.213,236.641 21.089 C 236.641 20.986,236.535 20.902,236.406 20.902 C 236.277 20.902,236.143 20.791,236.107 20.653 C 236.060 20.472,235.937 20.404,235.657 20.404 C 235.412 20.404,235.272 20.342,235.272 20.232 C 235.272 20.036,234.899 19.911,234.308 19.908 C 234.032 19.907,233.904 19.847,233.904 19.720 C 233.904 19.568,233.696 19.533,232.784 19.533 C 231.747 19.533,231.664 19.515,231.664 19.285 C 231.664 19.042,231.581 19.036,228.107 19.036 C 224.654 19.036,224.547 19.043,224.484 19.285 M263.178 19.285 C 263.123 19.495,263.008 19.533,262.443 19.533 C 261.930 19.533,261.773 19.577,261.773 19.720 C 261.773 19.850,261.642 19.907,261.337 19.907 C 260.985 19.907,260.902 19.954,260.902 20.156 C 260.902 20.351,260.819 20.404,260.517 20.404 C 260.237 20.404,260.115 20.472,260.067 20.653 C 260.031 20.791,259.897 20.902,259.768 20.902 C 259.639 20.902,259.533 20.986,259.533 21.089 C 259.533 21.191,259.444 21.275,259.335 21.275 C 259.226 21.275,259.109 21.382,259.075 21.513 C 259.041 21.643,258.906 21.778,258.775 21.812 C 258.645 21.846,258.538 21.963,258.538 22.072 C 258.538 22.181,258.460 22.271,258.364 22.271 C 258.233 22.271,258.180 22.016,258.147 21.223 C 258.122 20.647,258.056 20.129,257.999 20.073 C 257.883 19.957,248.807 19.857,248.367 19.966 L 248.087 20.036 248.087 39.940 L 248.087 59.844 253.126 59.844 L 258.165 59.844 258.165 46.532 C 258.165 34.781,258.187 33.219,258.351 33.219 C 258.509 33.219,258.538 32.936,258.538 31.415 C 258.538 29.878,258.566 29.611,258.729 29.611 C 258.833 29.611,258.955 29.513,258.999 29.393 C 259.043 29.274,259.149 29.133,259.234 29.082 C 259.320 29.030,259.426 28.820,259.471 28.615 C 259.526 28.366,259.629 28.243,259.782 28.243 C 260.144 28.243,260.404 28.107,260.404 27.918 C 260.404 27.782,260.659 27.745,261.586 27.745 C 262.538 27.745,262.768 27.780,262.768 27.926 C 262.768 28.034,262.943 28.140,263.204 28.189 C 263.453 28.235,263.639 28.344,263.639 28.443 C 263.639 28.538,263.717 28.616,263.812 28.616 C 263.911 28.616,264.020 28.802,264.066 29.051 C 264.115 29.312,264.221 29.487,264.329 29.487 C 264.454 29.487,264.510 29.626,264.510 29.934 C 264.510 30.276,264.568 30.396,264.759 30.446 C 264.989 30.506,265.008 30.616,265.008 31.865 C 265.008 32.986,265.040 33.219,265.194 33.219 C 265.359 33.219,265.381 34.781,265.381 46.532 L 265.381 59.844 269.922 59.844 L 274.463 59.844 274.463 47.714 C 274.463 37.014,274.441 35.583,274.277 35.583 C 274.115 35.583,274.090 35.119,274.090 32.150 C 274.090 28.822,274.083 28.715,273.841 28.652 C 273.607 28.591,273.593 28.482,273.593 26.797 C 273.593 25.091,273.581 25.008,273.344 25.008 C 273.113 25.008,273.095 24.925,273.095 23.884 C 273.095 23.000,273.055 22.745,272.908 22.689 C 272.793 22.645,272.722 22.456,272.722 22.195 C 272.722 21.856,272.673 21.773,272.473 21.773 C 272.307 21.773,272.224 21.690,272.224 21.524 C 272.224 21.358,272.141 21.275,271.975 21.275 C 271.837 21.275,271.726 21.192,271.726 21.089 C 271.726 20.986,271.642 20.902,271.540 20.902 C 271.436 20.902,271.353 20.791,271.353 20.653 C 271.353 20.492,271.270 20.404,271.119 20.404 C 270.989 20.404,270.855 20.293,270.819 20.156 C 270.772 19.974,270.650 19.907,270.369 19.907 C 270.110 19.907,269.984 19.846,269.984 19.720 C 269.984 19.590,269.854 19.533,269.553 19.533 C 269.250 19.533,269.083 19.460,268.989 19.285 C 268.862 19.047,268.729 19.036,266.049 19.036 C 263.347 19.036,263.240 19.045,263.178 19.285 M329.705 19.285 C 329.705 19.503,329.622 19.533,329.020 19.533 C 328.495 19.533,328.336 19.577,328.336 19.720 C 328.336 19.850,328.205 19.907,327.900 19.907 C 327.548 19.907,327.465 19.954,327.465 20.156 C 327.465 20.351,327.382 20.404,327.080 20.404 C 326.800 20.404,326.678 20.472,326.630 20.653 C 326.594 20.791,326.460 20.902,326.331 20.902 C 326.202 20.902,326.096 20.986,326.096 21.089 C 326.096 21.192,325.986 21.275,325.848 21.275 C 325.687 21.275,325.599 21.358,325.599 21.510 C 325.599 21.639,325.488 21.773,325.350 21.809 C 325.213 21.845,325.101 21.963,325.101 22.072 C 325.101 22.181,325.021 22.271,324.924 22.271 C 324.826 22.271,324.720 22.369,324.689 22.488 C 324.658 22.608,324.626 22.111,324.618 21.383 C 324.604 20.122,324.590 20.057,324.323 19.985 C 323.957 19.887,315.103 19.884,314.847 19.982 C 314.669 20.051,314.650 21.926,314.650 39.951 L 314.650 59.844 319.627 59.844 L 324.603 59.844 324.603 46.532 C 324.603 33.302,324.605 33.219,324.852 33.219 C 325.090 33.219,325.101 33.136,325.101 31.415 C 325.101 29.878,325.129 29.611,325.292 29.611 C 325.396 29.611,325.518 29.513,325.562 29.393 C 325.606 29.274,325.716 29.131,325.807 29.076 C 325.898 29.022,325.972 28.812,325.972 28.610 C 325.972 28.304,326.023 28.243,326.273 28.243 C 326.702 28.243,326.967 28.119,326.967 27.918 C 326.967 27.782,327.222 27.745,328.149 27.745 C 329.101 27.745,329.331 27.780,329.331 27.926 C 329.331 28.034,329.506 28.140,329.767 28.189 C 330.016 28.235,330.202 28.344,330.202 28.443 C 330.202 28.538,330.280 28.616,330.375 28.616 C 330.474 28.616,330.583 28.802,330.629 29.051 C 330.678 29.312,330.784 29.487,330.892 29.487 C 331.017 29.487,331.073 29.626,331.073 29.934 C 331.073 30.276,331.131 30.396,331.322 30.446 C 331.552 30.506,331.571 30.616,331.571 31.865 C 331.571 32.986,331.603 33.219,331.757 33.219 C 331.922 33.219,331.944 34.781,331.944 46.532 L 331.944 59.844 336.485 59.844 L 341.026 59.844 341.026 47.714 C 341.026 37.014,341.004 35.583,340.840 35.583 C 340.679 35.583,340.653 35.135,340.653 32.296 C 340.653 28.920,340.626 28.616,340.329 28.616 C 340.189 28.616,340.156 28.271,340.156 26.812 C 340.156 25.091,340.144 25.008,339.907 25.008 C 339.676 25.008,339.658 24.925,339.658 23.884 C 339.658 23.000,339.618 22.745,339.471 22.689 C 339.363 22.647,339.285 22.461,339.285 22.246 C 339.285 21.979,339.215 21.856,339.036 21.809 C 338.898 21.773,338.787 21.639,338.787 21.510 C 338.787 21.358,338.699 21.275,338.538 21.275 C 338.400 21.275,338.289 21.192,338.289 21.089 C 338.289 20.986,338.212 20.902,338.117 20.902 C 338.022 20.902,337.916 20.790,337.880 20.653 C 337.844 20.516,337.726 20.404,337.617 20.404 C 337.508 20.404,337.418 20.326,337.418 20.231 C 337.418 20.041,337.157 19.907,336.786 19.907 C 336.655 19.907,336.547 19.823,336.547 19.720 C 336.547 19.586,336.411 19.533,336.064 19.533 C 335.686 19.533,335.567 19.480,335.516 19.285 C 335.453 19.045,335.346 19.036,332.578 19.036 C 329.787 19.036,329.705 19.043,329.705 19.285 M356.143 19.285 C 356.077 19.493,355.955 19.533,355.388 19.533 C 354.870 19.533,354.712 19.577,354.712 19.720 C 354.712 19.840,354.591 19.907,354.370 19.908 C 353.837 19.911,353.468 20.044,353.468 20.232 C 353.468 20.327,353.356 20.404,353.219 20.404 C 353.053 20.404,352.970 20.487,352.970 20.653 C 352.970 20.855,352.888 20.902,352.535 20.902 C 352.231 20.902,352.100 20.958,352.100 21.089 C 352.100 21.192,351.989 21.275,351.851 21.275 C 351.685 21.275,351.602 21.358,351.602 21.524 C 351.602 21.690,351.519 21.773,351.353 21.773 C 351.187 21.773,351.104 21.856,351.104 22.022 C 351.104 22.160,351.021 22.271,350.918 22.271 C 350.815 22.271,350.731 22.355,350.731 22.457 C 350.731 22.561,350.620 22.644,350.482 22.644 C 350.316 22.644,350.233 22.727,350.233 22.893 C 350.233 23.059,350.150 23.142,349.984 23.142 C 349.819 23.142,349.736 23.224,349.736 23.390 C 349.736 23.529,349.653 23.639,349.549 23.639 C 349.419 23.639,349.362 23.771,349.362 24.075 C 349.362 24.427,349.315 24.510,349.114 24.510 C 348.906 24.510,348.865 24.593,348.865 25.008 C 348.865 25.422,348.823 25.505,348.616 25.505 C 348.414 25.505,348.367 25.588,348.367 25.941 C 348.367 26.245,348.311 26.376,348.180 26.376 C 348.038 26.376,347.994 26.534,347.994 27.046 C 347.994 27.611,347.955 27.726,347.745 27.781 C 347.513 27.842,347.496 27.951,347.496 29.413 C 347.496 30.897,347.483 30.980,347.247 30.980 C 347.001 30.980,346.998 31.063,346.998 39.825 C 346.998 48.566,347.001 48.671,347.247 48.735 C 347.474 48.795,347.496 48.905,347.496 49.968 C 347.496 51.052,347.514 51.135,347.745 51.135 C 347.970 51.135,347.994 51.218,347.994 52.010 C 347.994 52.673,348.039 52.902,348.180 52.957 C 348.312 53.007,348.367 53.212,348.367 53.649 C 348.367 54.164,348.409 54.280,348.616 54.334 C 348.803 54.383,348.865 54.504,348.865 54.820 C 348.865 55.158,348.914 55.241,349.114 55.241 C 349.315 55.241,349.362 55.324,349.362 55.677 C 349.362 55.981,349.419 56.112,349.549 56.112 C 349.653 56.112,349.736 56.223,349.736 56.361 C 349.736 56.527,349.819 56.610,349.984 56.610 C 350.150 56.610,350.233 56.693,350.233 56.858 C 350.233 57.024,350.316 57.107,350.482 57.107 C 350.648 57.107,350.731 57.190,350.731 57.356 C 350.731 57.494,350.814 57.605,350.918 57.605 C 351.020 57.605,351.104 57.689,351.104 57.792 C 351.104 57.895,351.215 57.978,351.353 57.978 C 351.519 57.978,351.602 58.061,351.602 58.227 C 351.602 58.393,351.685 58.476,351.851 58.476 C 352.017 58.476,352.100 58.559,352.100 58.725 C 352.100 58.862,352.178 58.974,352.273 58.974 C 352.368 58.974,352.478 59.058,352.518 59.160 C 352.563 59.277,352.753 59.347,353.029 59.347 C 353.385 59.347,353.468 59.394,353.468 59.596 C 353.468 59.811,353.551 59.844,354.076 59.844 C 354.579 59.844,354.694 59.887,354.748 60.093 C 354.802 60.300,354.918 60.342,355.434 60.342 C 355.871 60.342,356.075 60.397,356.126 60.529 C 356.184 60.681,356.485 60.715,357.757 60.715 C 359.233 60.715,359.316 60.729,359.316 60.964 C 359.316 61.202,359.399 61.213,361.120 61.213 C 362.841 61.213,362.924 61.202,362.924 60.964 C 362.924 60.728,363.007 60.715,364.541 60.715 C 365.896 60.715,366.159 60.685,366.159 60.529 C 366.159 60.389,366.308 60.342,366.750 60.340 C 367.518 60.338,367.900 60.231,367.900 60.017 C 367.900 59.902,368.050 59.844,368.348 59.844 C 368.690 59.844,368.810 59.786,368.860 59.596 C 368.906 59.421,369.029 59.347,369.277 59.347 C 369.471 59.347,369.675 59.273,369.729 59.182 C 369.784 59.091,369.927 58.981,370.047 58.937 C 370.166 58.893,370.264 58.771,370.264 58.666 C 370.264 58.562,370.348 58.476,370.451 58.476 C 370.554 58.476,370.638 58.367,370.638 58.235 C 370.638 58.046,370.739 57.985,371.104 57.955 C 371.530 57.919,371.574 57.881,371.610 57.512 C 371.634 57.261,371.717 57.107,371.827 57.107 C 371.926 57.107,372.006 56.995,372.006 56.858 C 372.006 56.693,372.089 56.610,372.255 56.610 C 372.456 56.610,372.504 56.527,372.504 56.174 C 372.504 55.822,372.551 55.739,372.753 55.739 C 372.960 55.739,373.002 55.656,373.002 55.241 C 373.002 54.882,373.053 54.743,373.188 54.743 C 373.319 54.743,373.375 54.612,373.375 54.308 C 373.375 53.955,373.422 53.872,373.624 53.872 C 373.850 53.872,373.872 53.790,373.872 52.939 C 373.872 52.089,373.895 52.006,374.121 52.006 C 374.361 52.006,374.370 51.923,374.370 49.705 C 374.370 47.711,374.396 47.403,374.562 47.403 C 374.721 47.403,374.748 47.253,374.718 46.563 L 374.681 45.723 369.984 45.691 L 365.288 45.658 365.288 47.014 C 365.288 48.264,365.269 48.374,365.039 48.434 C 364.820 48.491,364.790 48.604,364.790 49.367 C 364.790 50.131,364.760 50.243,364.541 50.300 C 364.360 50.348,364.292 50.470,364.292 50.750 C 364.292 51.010,364.231 51.135,364.106 51.135 C 363.971 51.135,363.919 51.274,363.919 51.633 C 363.919 52.048,363.878 52.131,363.670 52.131 C 363.532 52.131,363.421 52.214,363.421 52.317 C 363.421 52.420,363.332 52.504,363.223 52.504 C 363.114 52.504,362.996 52.616,362.960 52.753 C 362.911 52.940,362.790 53.002,362.474 53.002 C 362.136 53.002,362.053 53.051,362.053 53.250 C 362.053 53.630,360.250 53.630,360.151 53.250 C 360.104 53.072,359.981 53.002,359.715 53.002 C 359.449 53.002,359.326 52.931,359.280 52.753 C 359.244 52.616,359.125 52.504,359.016 52.504 C 358.907 52.504,358.818 52.420,358.818 52.317 C 358.818 52.215,358.734 52.131,358.631 52.131 C 358.528 52.131,358.445 52.020,358.445 51.882 C 358.445 51.716,358.362 51.633,358.196 51.633 C 357.993 51.633,357.947 51.550,357.947 51.186 C 357.947 50.843,357.889 50.724,357.698 50.674 C 357.480 50.617,357.449 50.504,357.449 49.752 C 357.449 49.074,357.411 48.896,357.263 48.896 C 357.101 48.896,357.076 48.426,357.076 45.412 L 357.076 41.928 365.910 41.928 L 374.743 41.928 374.743 36.454 C 374.743 31.671,374.720 30.980,374.557 30.980 C 374.405 30.980,374.370 30.773,374.370 29.868 C 374.370 28.866,374.346 28.749,374.121 28.678 C 373.904 28.609,373.872 28.490,373.872 27.737 C 373.872 26.957,373.849 26.874,373.624 26.874 C 373.405 26.874,373.375 26.791,373.375 26.190 C 373.375 25.664,373.331 25.505,373.188 25.505 C 373.064 25.505,373.002 25.381,373.002 25.133 C 373.002 24.896,372.911 24.705,372.753 24.606 C 372.616 24.520,372.504 24.380,372.504 24.294 C 372.504 24.207,372.392 24.137,372.255 24.137 C 372.048 24.137,372.006 24.054,372.006 23.639 C 372.006 23.298,371.952 23.142,371.834 23.142 C 371.739 23.142,371.633 23.030,371.597 22.893 C 371.561 22.756,371.443 22.644,371.334 22.644 C 371.225 22.644,371.135 22.560,371.135 22.457 C 371.135 22.354,371.025 22.271,370.886 22.271 C 370.721 22.271,370.638 22.188,370.638 22.022 C 370.638 21.885,370.560 21.773,370.466 21.773 C 370.371 21.773,370.264 21.661,370.228 21.524 C 370.193 21.387,370.074 21.275,369.965 21.275 C 369.856 21.275,369.767 21.191,369.767 21.089 C 369.767 20.958,369.635 20.902,369.331 20.902 C 368.979 20.902,368.896 20.855,368.896 20.653 C 368.896 20.515,368.813 20.404,368.709 20.404 C 368.607 20.404,368.411 20.292,368.274 20.156 C 368.108 19.990,367.859 19.907,367.527 19.907 C 367.168 19.907,367.030 19.855,367.030 19.720 C 367.030 19.572,366.851 19.533,366.167 19.533 C 365.414 19.533,365.294 19.502,365.226 19.285 C 365.148 19.042,365.037 19.036,360.684 19.036 C 356.331 19.036,356.220 19.042,356.143 19.285 M298.383 19.987 C 298.259 20.038,298.227 24.149,298.227 39.950 L 298.227 59.847 303.235 59.815 L 308.243 59.782 308.243 39.979 C 308.243 29.088,308.196 20.130,308.139 20.073 C 308.028 19.961,298.642 19.879,298.383 19.987 M92.691 26.998 C 92.691 27.198,92.773 27.247,93.111 27.247 C 93.428 27.247,93.549 27.309,93.597 27.496 C 93.633 27.633,93.752 27.745,93.861 27.745 C 93.970 27.745,94.059 27.834,94.059 27.943 C 94.059 28.052,94.171 28.171,94.308 28.207 C 94.495 28.255,94.557 28.376,94.557 28.693 C 94.557 28.984,94.614 29.114,94.743 29.114 C 94.882 29.114,94.930 29.259,94.930 29.672 C 94.930 30.096,94.990 30.269,95.179 30.387 C 95.411 30.531,95.428 30.677,95.428 32.514 C 95.428 34.382,95.441 34.490,95.677 34.552 C 95.916 34.614,95.925 34.722,95.925 37.402 C 95.925 40.104,95.918 40.187,95.677 40.187 C 95.432 40.187,95.428 40.270,95.428 44.719 C 95.428 49.143,95.422 49.254,95.179 49.331 C 94.962 49.400,94.930 49.520,94.930 50.273 C 94.930 50.957,94.891 51.135,94.743 51.135 C 94.609 51.135,94.557 51.274,94.557 51.633 C 94.557 52.120,94.547 52.131,94.117 52.131 C 93.842 52.131,93.651 52.200,93.606 52.317 C 93.567 52.420,93.457 52.504,93.361 52.504 C 93.266 52.504,93.188 52.616,93.188 52.753 C 93.188 52.983,93.105 53.002,92.068 53.002 C 91.261 53.002,90.946 53.045,90.939 53.157 C 90.931 53.281,90.916 53.281,90.866 53.157 C 90.827 53.060,90.552 53.002,90.130 53.002 C 89.539 53.002,89.456 52.971,89.456 52.753 C 89.456 52.587,89.373 52.504,89.207 52.504 C 89.069 52.504,88.958 52.421,88.958 52.317 C 88.958 52.215,88.874 52.131,88.771 52.131 C 88.640 52.131,88.585 51.998,88.585 51.684 C 88.585 51.341,88.527 51.221,88.336 51.171 C 88.126 51.116,88.087 51.002,88.087 50.436 C 88.087 49.850,88.056 49.767,87.838 49.767 C 87.593 49.767,87.589 49.684,87.589 44.479 C 87.589 39.862,87.566 39.191,87.403 39.191 C 87.241 39.191,87.216 38.701,87.216 35.521 C 87.216 32.341,87.241 31.851,87.403 31.851 C 87.552 31.851,87.589 31.664,87.589 30.918 C 87.589 30.067,87.612 29.984,87.838 29.984 C 88.040 29.984,88.087 29.902,88.087 29.549 C 88.087 29.233,88.142 29.114,88.285 29.114 C 88.394 29.114,88.513 29.002,88.549 28.865 C 88.584 28.728,88.691 28.616,88.786 28.616 C 88.881 28.616,88.958 28.552,88.958 28.475 C 88.958 28.308,89.467 27.815,89.753 27.705 C 89.863 27.663,89.953 27.543,89.953 27.438 C 89.953 27.292,90.101 27.247,90.587 27.247 C 91.116 27.247,91.232 27.206,91.286 26.998 C 91.341 26.788,91.456 26.750,92.021 26.750 C 92.608 26.750,92.691 26.780,92.691 26.998 M158.792 26.998 C 158.839 27.177,158.962 27.247,159.227 27.247 C 159.493 27.247,159.616 27.318,159.663 27.496 C 159.699 27.633,159.817 27.745,159.926 27.745 C 160.035 27.745,160.124 27.834,160.124 27.943 C 160.124 28.052,160.236 28.171,160.373 28.207 C 160.560 28.255,160.622 28.376,160.622 28.693 C 160.622 28.966,160.682 29.114,160.793 29.114 C 160.903 29.114,160.986 29.318,161.029 29.697 C 161.066 30.024,161.182 30.344,161.294 30.426 C 161.462 30.549,161.493 30.878,161.493 32.529 C 161.493 34.382,161.506 34.490,161.742 34.552 C 161.981 34.614,161.991 34.722,161.991 37.402 C 161.991 40.104,161.983 40.187,161.742 40.187 C 161.498 40.187,161.493 40.270,161.493 44.698 C 161.493 49.074,161.486 49.214,161.244 49.365 C 161.037 49.494,160.995 49.655,160.995 50.328 C 160.995 50.963,160.955 51.135,160.809 51.135 C 160.674 51.135,160.622 51.274,160.622 51.633 C 160.622 52.119,160.612 52.131,160.187 52.131 C 159.882 52.131,159.751 52.187,159.751 52.317 C 159.751 52.421,159.641 52.504,159.502 52.504 C 159.336 52.504,159.253 52.587,159.253 52.753 C 159.253 52.982,159.171 53.002,158.202 53.002 C 157.332 53.002,157.129 53.039,157.024 53.219 C 156.903 53.427,156.897 53.427,156.893 53.219 C 156.890 53.039,156.773 53.002,156.205 53.002 C 155.604 53.002,155.521 52.971,155.521 52.753 C 155.521 52.614,155.438 52.504,155.334 52.504 C 155.232 52.504,155.148 52.420,155.148 52.317 C 155.148 52.214,155.037 52.131,154.899 52.131 C 154.692 52.131,154.650 52.048,154.650 51.633 C 154.650 51.218,154.609 51.135,154.401 51.135 C 154.183 51.135,154.152 51.052,154.152 50.451 C 154.152 49.926,154.109 49.767,153.966 49.767 C 153.803 49.767,153.779 49.102,153.779 44.530 C 153.779 39.397,153.774 39.291,153.530 39.227 C 153.289 39.164,153.281 39.058,153.281 35.521 C 153.281 31.984,153.289 31.878,153.530 31.815 C 153.750 31.757,153.779 31.645,153.779 30.867 C 153.779 30.165,153.817 29.984,153.966 29.984 C 154.096 29.984,154.152 29.853,154.152 29.549 C 154.152 29.196,154.200 29.114,154.401 29.114 C 154.567 29.114,154.650 29.031,154.650 28.865 C 154.650 28.726,154.733 28.616,154.837 28.616 C 154.939 28.616,155.023 28.527,155.023 28.418 C 155.023 28.309,155.135 28.190,155.272 28.154 C 155.409 28.118,155.521 28.012,155.521 27.917 C 155.521 27.822,155.633 27.745,155.770 27.745 C 155.936 27.745,156.019 27.662,156.019 27.496 C 156.019 27.277,156.102 27.247,156.703 27.247 C 157.304 27.247,157.387 27.217,157.387 26.998 C 157.387 26.780,157.470 26.750,158.057 26.750 C 158.622 26.750,158.737 26.788,158.792 26.998 M229.425 26.998 C 229.425 27.198,229.508 27.247,229.846 27.247 C 230.162 27.247,230.283 27.309,230.332 27.496 C 230.367 27.633,230.486 27.745,230.595 27.745 C 230.704 27.745,230.793 27.834,230.793 27.943 C 230.793 28.052,230.905 28.171,231.042 28.207 C 231.229 28.255,231.291 28.376,231.291 28.693 C 231.291 28.966,231.351 29.114,231.461 29.114 C 231.572 29.114,231.655 29.318,231.697 29.697 C 231.734 30.024,231.851 30.344,231.962 30.426 C 232.131 30.549,232.162 30.878,232.162 32.529 C 232.162 34.382,232.175 34.490,232.411 34.552 C 232.650 34.614,232.659 34.722,232.659 37.402 C 232.659 40.104,232.652 40.187,232.411 40.187 C 232.166 40.187,232.162 40.270,232.162 44.698 C 232.162 49.074,232.154 49.214,231.913 49.365 C 231.706 49.494,231.664 49.655,231.664 50.328 C 231.664 50.963,231.624 51.135,231.477 51.135 C 231.343 51.135,231.291 51.274,231.291 51.633 C 231.291 52.119,231.280 52.131,230.855 52.131 C 230.551 52.131,230.420 52.187,230.420 52.317 C 230.420 52.421,230.309 52.504,230.171 52.504 C 230.005 52.504,229.922 52.587,229.922 52.753 C 229.922 52.983,229.839 53.002,228.802 53.002 C 227.825 53.002,227.681 53.029,227.668 53.219 C 227.655 53.427,227.651 53.427,227.597 53.219 C 227.552 53.046,227.403 53.002,226.865 53.002 C 226.273 53.002,226.190 52.971,226.190 52.753 C 226.190 52.587,226.107 52.504,225.941 52.504 C 225.803 52.504,225.692 52.421,225.692 52.317 C 225.692 52.215,225.608 52.131,225.505 52.131 C 225.371 52.131,225.319 51.992,225.319 51.633 C 225.319 51.218,225.277 51.135,225.070 51.135 C 224.851 51.135,224.821 51.052,224.821 50.451 C 224.821 49.850,224.791 49.767,224.572 49.767 C 224.327 49.767,224.323 49.684,224.323 44.479 C 224.323 39.862,224.300 39.191,224.137 39.191 C 223.975 39.191,223.950 38.701,223.950 35.521 C 223.950 32.341,223.975 31.851,224.137 31.851 C 224.286 31.851,224.323 31.664,224.323 30.918 C 224.323 30.067,224.346 29.984,224.572 29.984 C 224.774 29.984,224.821 29.902,224.821 29.549 C 224.821 29.196,224.869 29.114,225.070 29.114 C 225.236 29.114,225.319 29.031,225.319 28.865 C 225.319 28.726,225.402 28.616,225.505 28.616 C 225.608 28.616,225.692 28.552,225.692 28.475 C 225.692 28.278,226.288 27.745,226.507 27.745 C 226.606 27.745,226.687 27.633,226.687 27.496 C 226.687 27.277,226.770 27.247,227.372 27.247 C 227.973 27.247,228.056 27.217,228.056 26.998 C 228.056 26.780,228.139 26.750,228.740 26.750 C 229.342 26.750,229.425 26.780,229.425 26.998 M362.089 26.998 C 362.136 27.177,362.259 27.247,362.524 27.247 C 362.790 27.247,362.913 27.318,362.960 27.496 C 362.996 27.633,363.108 27.745,363.209 27.745 C 363.310 27.745,363.422 27.857,363.458 27.994 C 363.493 28.131,363.612 28.243,363.721 28.243 C 363.830 28.243,363.919 28.327,363.919 28.429 C 363.919 28.532,364.003 28.616,364.106 28.616 C 364.247 28.616,364.292 28.769,364.292 29.250 C 364.292 29.779,364.333 29.894,364.541 29.948 C 364.779 30.010,364.790 30.118,364.790 32.301 L 364.790 34.588 360.933 34.588 L 357.076 34.588 357.076 32.286 C 357.076 30.323,357.104 29.984,357.263 29.984 C 357.391 29.984,357.449 29.856,357.449 29.579 C 357.449 29.308,357.532 29.122,357.698 29.018 C 357.839 28.930,357.947 28.728,357.947 28.553 C 357.947 28.352,358.017 28.243,358.145 28.243 C 358.254 28.243,358.373 28.131,358.409 27.994 C 358.445 27.857,358.551 27.745,358.646 27.745 C 358.741 27.745,358.818 27.633,358.818 27.496 C 358.818 27.277,358.901 27.247,359.502 27.247 C 360.104 27.247,360.187 27.217,360.187 26.998 C 360.187 26.772,360.270 26.750,361.105 26.750 C 361.919 26.750,362.031 26.778,362.089 26.998 M381.711 54.806 L 381.711 59.844 386.439 59.844 L 391.166 59.844 391.166 54.806 L 391.166 49.767 386.439 49.767 L 381.711 49.767 381.711 54.806 M3.981 65.132 L 3.981 67.185 199.565 67.185 L 395.148 67.185 395.148 65.132 L 395.148 63.079 199.565 63.079 L 3.981 63.079 3.981 65.132 " stroke="none" fill="#ffffff" fill-rule="evenodd"></path></g></svg>