<?xml version="1.0" encoding="UTF-8" standalone="no"?>
<!DOCTYPE svg PUBLIC "-//W3C//DTD SVG 1.1//EN" "http://www.w3.org/Graphics/SVG/1.1/DTD/svg11.dtd">
<svg width="100%" height="100%" viewBox="0 0 1126 675" version="1.1" xmlns="http://www.w3.org/2000/svg" xmlns:xlink="http://www.w3.org/1999/xlink" xml:space="preserve" xmlns:serif="http://www.serif.com/" style="fill-rule:evenodd;clip-rule:evenodd;stroke-linejoin:round;stroke-miterlimit:2;">
    <g transform="matrix(1,0,0,1,-698.143,-1250.16)">
        <g transform="matrix(4.16667,0,0,4.16667,5.98911,1155.9)">
            <g transform="matrix(0.998183,-0.0602556,0.0602556,0.998183,-5.76718,18.2419)">
                <path d="M423.234,126.977C422.84,125.645 422.371,124.527 421.793,123.629C421.219,122.727 420.91,122.168 420.84,121.937C420.75,121.613 420.84,120.371 421.129,118.227C421.434,116.176 421.668,114.754 421.867,113.926C422.063,113.117 422.297,112.719 422.551,112.719C422.711,112.719 422.965,112.898 423.289,113.297C425.359,115.797 427.77,118.391 430.508,121.055C431.621,122.168 432.16,122.871 432.16,123.195C432.16,123.395 431.98,123.5 431.621,123.5C431.172,123.5 429.965,123.23 428.023,122.711C429.191,125.41 430.344,128.109 431.477,130.773C433.277,135.094 434.18,138.91 434.18,142.203C434.18,143.824 433.855,145.785 433.242,148.055C432.469,150.863 431.461,152.949 430.273,154.301C425.609,159.574 417.762,165.371 406.746,171.687C397.172,177.195 391.52,179.949 389.809,179.949C389.484,179.949 384.77,181.047 375.695,183.262C366.066,185.602 360.035,186.969 357.59,187.367C355.016,187.762 353.43,187.961 352.855,187.961C352.566,187.961 352.422,187.922 352.422,187.852C352.422,187.637 354.168,186.699 357.68,185.078C358.957,184.484 366.371,181.316 379.945,175.559C389.34,171.543 397.188,167.855 403.469,164.469C412.902,159.359 420.066,154.91 424.945,151.133C428.688,148.215 430.559,146.164 430.559,144.992C430.559,144.562 429.605,142.293 427.715,138.191C425.539,133.508 424.043,129.766 423.234,126.977Z" style="fill:rgb(255,97,5);fill-rule:nonzero;"/>
            </g>
            <g transform="matrix(0.24,0,0,0.24,-1.43739,-277.416)">
                <path d="M1619.21,1720.21C1619.33,1719.82 1619.39,1719.45 1619.36,1718.99C1619.01,1713.08 1611.53,1705.03 1597.08,1694.87C1580.39,1683.4 1564.23,1678.15 1548.65,1679.09C1515.49,1681.09 1483.07,1717.68 1451.36,1788.86C1460.11,1791.72 1471.88,1792.74 1486.63,1791.85C1512.32,1790.3 1539.83,1780.75 1569.2,1763.19C1595.31,1747.64 1611.96,1733.35 1619.21,1720.21ZM1647.11,1785.56C1594.48,1811.75 1539.99,1826.57 1483.83,1829.96C1468.41,1830.89 1453.03,1829.03 1437.65,1824.34C1433.08,1840.69 1429.45,1848.95 1426.75,1849.11C1425.78,1849.17 1425.25,1847.93 1425.11,1845.53C1424.8,1840.51 1426.12,1832.39 1429.12,1821.25C1412.45,1812.55 1403.42,1797.54 1402.13,1776.13C1391.6,1788.34 1379.63,1799.14 1366.22,1808.51C1349.29,1820.51 1334.21,1826.98 1320.95,1827.78L1320.91,1827.75L1320.87,1827.78C1306.19,1828.67 1294.71,1826.35 1286.42,1820.85C1274.37,1813 1265.63,1797.68 1260.18,1774.72C1256.79,1760.56 1251.83,1718.41 1245.42,1648.39C1238.51,1572.32 1233.66,1525.74 1230.9,1508.62C1226.39,1481.24 1219.41,1455.29 1210.13,1430.82C1209.72,1424.16 1211.82,1414.12 1216.43,1400.7C1217.58,1397.32 1218.6,1395.68 1219.35,1395.63C1220.18,1395.58 1221.38,1396.86 1222.89,1399.48C1232.52,1415.73 1240.74,1443.93 1247.53,1484.02C1251.74,1508.86 1257.13,1558.51 1263.64,1632.87C1269.77,1703.13 1273.59,1741.45 1275.09,1747.75C1279.45,1766.48 1286.43,1778.62 1295.98,1783.97C1300.89,1786.68 1308.39,1787.73 1318.41,1787.12L1318.46,1787.14L1318.49,1787.12C1347.39,1785.37 1377.8,1770.1 1409.64,1741.27C1411.14,1739.83 1412.47,1739.45 1413.64,1740.2C1414.74,1741.11 1415.07,1742.75 1414.55,1745.26C1413.33,1750.21 1412.83,1754.31 1413.03,1757.6C1413.68,1768.38 1422.36,1777.61 1438.97,1785.19C1459.36,1740.98 1474.82,1710.81 1485.43,1694.69C1508.07,1660.27 1531.19,1642.41 1554.7,1640.99C1575.95,1639.71 1594.9,1646.31 1611.56,1660.78C1625.45,1672.87 1632.74,1684.22 1633.38,1694.93C1634.17,1707.95 1632.62,1719.46 1628.7,1729.49C1624.16,1741.17 1615.45,1753.86 1602.67,1767.48C1612.02,1764.21 1626.58,1757.79 1646.15,1748.34L1646.55,1748.16C1650.78,1746.31 1656.61,1743.39 1663.96,1739.52C1663.73,1735.78 1663.49,1731.8 1663.25,1727.77C1661.73,1702.61 1665.38,1678.58 1674.38,1655.72C1683.29,1632.94 1693.63,1621.19 1705.23,1620.49C1713.39,1620 1720.54,1626.34 1726.75,1639.56C1732.07,1650.65 1735.1,1662.27 1735.84,1674.48C1737.28,1698.27 1733.6,1717.13 1724.98,1730.94C1717.02,1743.68 1701.81,1756.54 1679.21,1769.55C1679.83,1779.88 1678.81,1785.12 1676.03,1785.29C1674.16,1785.41 1672.57,1781.38 1671.25,1773.34C1667.32,1775.45 1659.68,1779.37 1648.36,1784.94L1647.11,1785.56ZM1722.73,1693.59C1716.67,1670.59 1708.63,1659.44 1698.67,1660.04C1693.5,1660.35 1687.7,1667.45 1681.18,1681.46C1673.76,1697.9 1670.95,1716.02 1672.67,1735.76C1679.26,1732.89 1687.98,1728.01 1698.68,1721.12C1710.71,1713.62 1718.22,1707.61 1721.19,1703.08C1723.19,1700.25 1723.68,1697.07 1722.73,1693.59Z" style="fill:rgb(154,75,183);fill-rule:nonzero;"/>
            </g>
            <g transform="matrix(0.998183,-0.0602556,0.0602556,0.998183,-5.76718,18.2419)">
                <path d="M243.449,165.371C248.023,165.371 253.477,163.012 259.867,158.332C264.223,155.199 270.395,149.801 278.406,142.113C288.16,132.809 294.805,126.668 298.313,123.664C306.125,117.023 312.371,112.594 317.051,110.379C319.984,109.031 323.117,108.344 326.43,108.344C328.969,108.344 331.184,109.137 333.07,110.723C334.961,112.324 335.898,114.16 335.898,116.246C335.898,118.91 335.449,121.234 334.531,123.176C334.207,123.898 333.973,124.258 333.848,124.258C333.719,124.258 333.469,123.898 333.07,123.176C331.184,119.793 328.32,118.121 324.484,118.121C318.941,118.121 311.598,121.953 302.418,129.641C298.313,133.023 291.422,139.504 281.719,149.062C273.059,157.594 266.398,163.605 261.703,167.133C254.555,172.461 248.293,175.145 242.965,175.145C235.676,175.145 232.039,169.312 232.039,157.648C232.039,151.602 234.504,143.75 239.453,134.121C239.977,133.133 240.391,132.645 240.715,132.645C240.84,132.645 240.91,132.789 240.91,133.043C240.91,134.016 239.832,137.379 237.691,143.141C235.547,148.918 234.484,153.488 234.484,156.875C234.484,159.27 235.297,161.301 236.914,162.922C238.535,164.543 240.73,165.371 243.449,165.371Z" style="fill:rgb(0,205,177);fill-rule:nonzero;"/>
            </g>
            <g transform="matrix(0.24,0,0,0.24,-1.43739,-277.416)">
                <path d="M1094.32,1698.7C1075.9,1707.96 1061.88,1715.15 1052.53,1720.3C1032.82,1730.95 1019.28,1739.51 1012.09,1745.97C998.803,1757.66 979.845,1779.61 955.108,1811.76C940.42,1830.99 925.037,1841.15 909.083,1842.11C895.682,1842.92 883.65,1837.56 872.882,1826.11C861.563,1814.18 855.405,1799.15 854.307,1780.96C852.798,1755.96 861.079,1722.7 879.236,1681.24C881.158,1676.92 882.674,1674.73 883.876,1674.65C884.488,1674.77 884.745,1675.29 884.799,1676.18C885.047,1680.29 881.475,1694.56 873.942,1719.13C866.471,1743.7 863.22,1762.99 864.06,1776.91C864.706,1787.62 867.687,1796 873.075,1802.07C878.74,1808.64 886.359,1811.7 895.8,1811.13C912.487,1810.12 928.816,1800.58 944.872,1782.63C954.867,1769.1 964.945,1755.64 974.956,1742.11C988.069,1725.4 1005.72,1710.13 1027.88,1696.32C1040.82,1688.17 1063.46,1676.14 1095.71,1660.22L1097.29,1659.43C1130.34,1642.96 1152.48,1630.28 1163.39,1621.27C1165.98,1619.23 1167.27,1617.04 1167.13,1614.74C1166.94,1611.66 1164.33,1608.14 1159.37,1604.23C1145.64,1593.48 1125.65,1581.01 1099.39,1566.68C1067.37,1549.06 1046.43,1536.96 1036.49,1530.5C1013.58,1515.72 995.275,1499.85 981.464,1482.88C981.063,1482.38 978.978,1481.38 975.211,1480.03C971.442,1478.59 969.564,1477.21 969.482,1475.86C967.286,1439.48 970.423,1416.9 978.997,1408.18C1000.8,1386.15 1048.49,1355.84 1122.28,1317.27C1196.62,1278.22 1246.2,1258.02 1270.83,1256.54C1278.09,1256.1 1283.19,1257.21 1286.07,1259.97C1288.94,1262.73 1290.67,1267.59 1291.1,1274.62C1292.07,1290.72 1283.61,1311.37 1265.82,1336.47C1259.12,1345.07 1252.43,1353.67 1245.6,1362.35C1234.87,1376.43 1227.75,1387.84 1224.21,1396.46C1221.86,1402.31 1220.31,1405.28 1219.62,1405.32C1218.96,1405.36 1219.18,1401.51 1220.22,1393.85C1220.71,1389.61 1223.49,1382.16 1228.41,1371.57C1232.86,1361.76 1236.31,1355.39 1238.67,1352.4C1258.91,1326.46 1270.87,1309.43 1274.74,1301.45C1275.16,1300.68 1275.33,1299.83 1275.28,1299.02C1275,1294.37 1268.73,1292.5 1256.53,1293.24C1237.06,1294.41 1192.3,1313.57 1122.27,1350.85C1051.59,1388.56 1003.68,1418.94 978.627,1442.03C976.929,1443.63 977.301,1444.96 979.607,1445.88L1019.27,1461.58C1027.95,1465.04 1032.35,1468.09 1032.51,1470.78C1032.66,1473.25 1029.29,1474.66 1022.56,1475.07C1019.03,1475.28 1014.82,1475.23 1009.91,1474.85C1018.97,1485.28 1038.59,1498.13 1068.67,1513.45C1105.59,1532.34 1129.38,1545.55 1140.12,1553.17C1163.76,1570 1176.08,1587.52 1177.18,1605.78C1178.57,1628.69 1172.95,1646.4 1160.41,1659.02C1151.42,1668.12 1130.69,1680.73 1098.07,1696.82L1094.32,1698.7Z" style="fill:rgb(255,176,0);fill-rule:nonzero;"/>
            </g>
            <g transform="matrix(0.24,0,0,0.24,-1.43739,-277.416)">
                <path d="M915.878,1592.72C907.365,1570.94 900.996,1548.8 896.781,1526.23C896.022,1522.29 895.507,1519.93 895.137,1518.98C894.128,1516.02 892.228,1512.9 889.317,1509.56L897.113,1486.85C898.305,1483.09 899.544,1481.2 900.6,1481.14C901.573,1481.08 903.242,1482.79 905.789,1486.32L931.405,1522.26C934.86,1527.09 936.575,1530.67 936.715,1533C936.815,1534.64 936.116,1535.51 934.461,1535.61C931.616,1535.78 926.388,1533.68 918.759,1529.42C921.688,1543.44 927.427,1561.13 936.012,1582.33C950.823,1576.32 963.712,1572.98 974.62,1572.32C986.075,1571.63 995.51,1575.87 1002.76,1585.2C1010.07,1594.46 1014.22,1607.06 1015.17,1622.85C1015.97,1636.03 1013.78,1647.05 1008.6,1655.92C1003.42,1664.81 996.125,1669.53 986.834,1670.09C973.965,1670.86 961.158,1665.33 948.351,1653.63C938.803,1644.81 931.535,1635.19 926.388,1624.76C904.919,1634.84 880.552,1652.01 853.543,1676.19C833.681,1694.51 813.979,1712.84 794.264,1731.17C779.55,1743.76 765.833,1750.46 753.098,1751.23C739.71,1752.03 727.661,1746.68 716.894,1735.23C705.575,1723.3 699.416,1708.26 698.317,1690.06C696.808,1665.06 705.09,1631.8 723.246,1590.35C725.172,1586.03 726.684,1583.83 727.886,1583.76C728.494,1583.81 728.759,1584.39 728.813,1585.28C729.062,1589.41 725.486,1603.66 717.953,1628.24C710.499,1652.82 707.23,1672.09 708.07,1686.02C708.708,1696.58 711.693,1704.96 717.107,1711.17C722.9,1717.74 730.537,1720.81 739.812,1720.25C755.167,1719.32 769.225,1713.44 782.17,1702.58C797.922,1687.21 813.753,1671.83 829.51,1656.53C857.998,1629.26 886.764,1607.99 915.751,1592.78L915.878,1592.72ZM986.181,1629.33C991.429,1629.01 994.023,1627.44 993.851,1624.59C993.598,1620.4 989.641,1616.95 981.961,1614.26C976.286,1612.35 967.297,1612.81 955.001,1615.74C962.216,1625.59 972.63,1630.14 986.181,1629.33Z" style="fill:rgb(0,179,206);fill-rule:nonzero;"/>
            </g>
            <g transform="matrix(0.998183,-0.0602556,0.0602556,0.998183,-5.76718,18.2419)">
                <path d="M357.77,108.023C357.625,107.934 357.625,107.734 357.77,107.445L360.883,101.039C361.078,100.641 361.297,100.461 361.512,100.461C361.836,100.461 363.238,101.309 365.723,103C368.191,104.691 369.434,105.684 369.434,105.969C369.434,107.086 368.336,109.391 366.156,112.918C365.887,113.367 365.617,113.477 365.328,113.258C362.879,111.387 360.359,109.66 357.77,108.023Z" style="fill:rgb(0,205,177);fill-rule:nonzero;"/>
            </g>
            <g transform="matrix(0.998183,-0.0602556,0.0602556,0.998183,-5.76718,18.2419)">
                <path d="M219.148,130.738L216.738,125.57C216.559,125.176 216.539,124.887 216.664,124.707C216.883,124.457 218.41,123.914 221.293,123.051C224.152,122.187 225.719,121.863 225.938,122.043C226.801,122.746 227.914,125.051 229.266,128.957C229.445,129.422 229.355,129.711 229.016,129.801C226.422,130.469 223.598,131.297 220.535,132.305C221.563,134.301 222.355,136.082 222.91,137.668C223.094,138.152 223.02,138.441 222.641,138.531C219.672,139.27 216.738,140.117 213.82,141.125C213.68,141.16 213.516,141.035 213.371,140.746L210.367,134.301C210.188,133.906 210.168,133.617 210.313,133.437C210.492,133.203 211.789,132.734 214.184,131.996C216.574,131.258 218.23,130.844 219.148,130.738Z" style="fill:rgb(255,97,6);fill-rule:nonzero;"/>
            </g>
            <g transform="matrix(0.998183,-0.0602556,0.0602556,0.998183,-5.76718,18.2419)">
                <path d="M319.754,95.711C319.609,95.621 319.609,95.422 319.754,95.133L322.867,88.727C323.063,88.328 323.281,88.148 323.496,88.148C323.82,88.148 325.223,88.996 327.707,90.687C330.176,92.379 331.414,93.371 331.414,93.656C331.414,94.773 330.316,97.078 328.141,100.605C327.871,101.055 327.602,101.164 327.313,100.949C324.863,99.074 322.344,97.348 319.754,95.711Z" style="fill:rgb(255,176,0);fill-rule:nonzero;"/>
            </g>
            <g transform="matrix(0.998183,-0.0602556,0.0602556,0.998183,-5.76718,18.2419)">
                <path d="M378.539,111.242C394.668,105.215 411.371,99.004 428.617,92.578C429.137,92.398 429.445,92.324 429.535,92.398C429.68,92.488 429.641,92.758 429.445,93.227C428.852,94.648 428.383,95.512 428.023,95.801C427.824,95.996 419.813,99.059 403.957,104.98C387.793,111.008 378.758,114.574 376.883,115.691C377.207,114.34 377.746,112.863 378.539,111.242Z" style="fill:rgb(0,179,206);fill-rule:nonzero;"/>
            </g>
            <g transform="matrix(0.998183,-0.0602556,0.0602556,0.998183,-5.76718,18.2419)">
                <path d="M360.199,91.445C376.324,85.414 393.031,79.203 410.273,72.777C410.797,72.598 411.102,72.527 411.191,72.598C411.336,72.687 411.301,72.957 411.102,73.426C410.508,74.848 410.039,75.711 409.68,76C409.48,76.199 401.473,79.258 385.613,85.18C369.449,91.211 360.414,94.773 358.543,95.891C358.867,94.539 359.406,93.062 360.199,91.445Z" style="fill:rgb(255,176,0);fill-rule:nonzero;"/>
            </g>
            <g transform="matrix(0.998183,-0.0602556,0.0602556,0.998183,-5.76718,18.2419)">
                <path d="M337.824,78.285C353.953,72.254 370.656,66.047 387.898,59.621C388.422,59.441 388.727,59.367 388.816,59.441C388.961,59.531 388.926,59.801 388.727,60.27C388.133,61.691 387.664,62.555 387.305,62.84C387.109,63.039 379.098,66.102 363.238,72.023C347.074,78.051 338.039,81.617 336.168,82.73C336.492,81.383 337.031,79.906 337.824,78.285Z" style="fill:rgb(255,97,6);fill-rule:nonzero;"/>
            </g>
            <g transform="matrix(0.998183,-0.0602556,0.0602556,0.998183,-5.76718,18.2419)">
                <path d="M282.563,57.516C283.5,58.035 283.949,58.648 283.949,59.367C283.949,59.871 283.734,60.34 283.266,60.789C281.969,62.105 281.16,62.66 280.836,62.5C280.871,62.051 280.422,61.312 279.523,60.305C278.891,59.945 277.219,59.855 274.48,60.016C271.586,60.176 269.242,60.59 267.461,61.277C266.867,61.508 266.578,61.762 266.578,62.066C266.578,62.59 267.535,63.398 269.461,64.496C270.918,65.344 272.809,66.191 275.113,67.02C277.434,67.844 278.84,68.402 279.359,68.711C282.238,70.367 283.555,72.273 283.32,74.414C283.195,75.711 282.367,77.008 280.836,78.32C279.469,79.492 278.516,80.016 277.992,79.887C269.711,77.891 263.879,75.926 260.531,73.965C257.722,72.344 256.34,70.043 256.34,67.035C256.34,66.496 256.39,65.973 256.519,65.488C257.347,66.98 259.234,68.582 262.242,70.312C263.504,71.066 266.723,72.328 271.906,74.129C276.48,75.711 279.344,76.648 280.441,76.898C280.836,75.371 279.379,73.66 276.102,71.734C273.816,70.922 270.703,69.59 266.723,67.773C264.148,66.281 262.871,64.949 262.871,63.758C262.871,62.824 263.734,61.797 265.465,60.684C269.551,58.055 273.836,56.738 278.297,56.738C280.207,56.738 281.629,56.992 282.563,57.516Z" style="fill:rgb(0,205,177);fill-rule:nonzero;"/>
            </g>
            <g transform="matrix(0.998183,-0.0602556,0.0602556,0.998183,-5.76718,18.2419)">
                <path d="M191.141,76.25C190.746,74.434 190.063,72.254 189.09,69.719C188.012,66.836 187.254,65.414 186.84,65.414C186.516,65.414 186.316,65.504 186.227,65.723C186.137,65.918 185.887,66.027 185.438,66.027C184.949,66.027 184.285,65.648 183.492,64.93C182.684,64.191 182.285,63.598 182.285,63.164C182.285,62.949 182.609,62.285 183.293,61.168C183.961,60.035 184.391,59.477 184.555,59.477C186.211,59.477 187.668,60.449 188.98,62.391C190.277,64.336 191.195,66.875 191.719,70.004C191.773,70.328 191.809,70.527 191.809,70.582C191.863,70.672 191.914,70.672 191.934,70.582C191.969,70.527 192.043,70.328 192.168,70.004C192.422,68.133 193.066,65.344 194.094,61.617C195.211,58.953 196.414,57.621 197.73,57.621C198.414,57.621 199.078,58.07 199.766,58.973C200.34,59.766 200.645,60.41 200.645,60.898C200.645,61.293 200.539,61.781 200.32,62.391C200.07,63.219 199.766,63.633 199.402,63.633C199.262,63.633 198.938,63.309 198.449,62.68C197.945,62.051 197.426,61.742 196.902,61.742C195.73,61.742 194.652,64.496 193.66,70.043C193.121,73.102 192.637,75.102 192.168,76.07C193.105,76.16 194.328,76.809 195.82,78.016C197.336,79.238 198.16,80.285 198.305,81.164C198.344,81.398 198.125,82.012 197.695,82.984C197.262,83.973 196.957,84.496 196.777,84.551C195.336,84.965 193.895,85.359 192.473,85.738C190.676,86.332 189.434,87.016 188.73,87.809C189.359,89.645 189.988,92.633 190.621,96.773C191.359,101.469 191.734,105.41 191.734,108.598C191.734,110.453 191.539,112.27 191.16,114.051C191.016,114.664 190.891,114.988 190.801,115.023C190.621,115.023 190.547,113.996 190.547,111.945C190.547,108.543 190.043,103.937 189.035,98.121C188.047,92.309 187.543,89.051 187.543,88.348C187.543,85.973 188.227,84.227 189.574,83.109C190.207,82.586 191.43,82.047 193.211,81.527C192.492,80.789 191.789,80.426 191.105,80.426C190.781,80.426 190.332,80.805 189.738,81.578C189.16,82.336 188.82,82.715 188.73,82.715C188.586,82.715 188.551,82.391 188.605,81.742C188.93,78.684 189.773,76.844 191.141,76.25Z" style="fill:rgb(255,176,0);fill-rule:nonzero;"/>
            </g>
            <g transform="matrix(0.998183,-0.0602556,0.0602556,0.998183,-5.76718,18.2419)">
                <path d="M187.668,155.918C186.336,154.805 186.086,152.426 186.895,148.773C187.648,145.461 188.98,142.168 190.926,138.891C191.105,138.586 191.215,138.406 191.25,138.352C191.27,138.242 191.23,138.207 191.141,138.262C191.07,138.281 190.871,138.387 190.547,138.586C188.117,140.766 184.715,143.445 180.324,146.648C177.48,148.125 175.5,148.395 174.367,147.461C173.809,146.973 173.555,146.109 173.629,144.852C173.699,143.77 173.898,143.016 174.258,142.582C174.527,142.258 174.977,141.898 175.59,141.52C176.398,141.016 176.957,140.891 177.266,141.141C177.391,141.25 177.426,141.734 177.406,142.637C177.371,143.535 177.59,144.164 178.02,144.543C178.957,145.316 182.719,142.961 189.305,137.488C191.395,135.742 193.016,134.645 194.184,134.176C194.992,133.871 195.496,133.816 195.73,133.996C195.93,134.176 195.805,134.52 195.371,135.039C194.652,135.887 193.5,138.352 191.879,142.457C190.223,146.668 189.574,148.937 189.953,149.242C190.223,149.477 190.477,149.531 190.691,149.402C190.926,149.297 191.215,149.387 191.594,149.711C192.023,150.07 192.313,150.844 192.473,152.031C192.637,153.238 192.563,154.031 192.238,154.391C192.098,154.57 191.34,154.895 189.953,155.379C188.566,155.867 187.813,156.047 187.668,155.918Z" style="fill:rgb(154,76,183);fill-rule:nonzero;"/>
            </g>
            <g transform="matrix(0.998183,-0.0602556,0.0602556,0.998183,-5.76718,18.2419)">
                <path d="M353.305,35.48C353.305,35.914 353.195,36.473 352.961,37.156C352.676,38.055 352.332,38.523 351.938,38.523C351.773,38.523 351.414,38.164 350.855,37.461C350.316,36.758 349.738,36.418 349.145,36.418C347.852,36.418 346.645,39.477 345.547,45.633C345.059,48.371 344.52,51.23 343.926,54.219C343.512,54.977 343.152,55.355 342.863,55.355C342.594,55.355 342.469,55.012 342.469,54.328C342.469,53.195 341.855,50.637 340.613,46.66C339.355,42.52 338.473,40.469 337.984,40.469C337.625,40.469 337.391,40.574 337.301,40.809C337.195,41.027 336.906,41.152 336.422,41.152C335.863,41.152 335.141,40.738 334.242,39.926C333.344,39.117 332.91,38.453 332.91,37.965C332.91,37.75 333.27,37.012 334.027,35.75C334.781,34.492 335.25,33.879 335.449,33.879C337.266,33.879 338.902,34.961 340.344,37.121C341.801,39.281 342.809,42.105 343.402,45.578C343.457,45.941 343.492,46.156 343.492,46.211C343.566,46.316 343.602,46.316 343.637,46.211C343.676,46.156 343.746,45.941 343.891,45.578C344.18,43.508 344.898,40.395 346.031,36.254C347.273,33.305 348.625,31.828 350.082,31.828C350.84,31.828 351.574,32.332 352.332,33.34C352.98,34.223 353.305,34.922 353.305,35.48ZM342.758,56.867C341.297,60.215 338.309,63.309 333.773,66.137C328.246,69.59 320.852,73.047 311.578,76.484C310.754,76.773 310.211,76.937 309.906,76.937C309.781,76.937 309.727,76.898 309.727,76.828C309.727,76.629 310.195,76.25 311.129,75.656C312.785,74.578 316.871,72.273 323.387,68.727C328.984,65.668 332.766,63.363 334.766,61.832C336.672,60.5 338.977,58.648 341.641,56.273C342.773,54.723 343.457,53.934 343.691,53.934C343.746,53.934 343.781,53.969 343.781,54.023C343.781,54.383 343.441,55.336 342.758,56.867Z" style="fill:rgb(0,205,177);fill-rule:nonzero;"/>
            </g>
            <g transform="matrix(0.998183,-0.0602556,0.0602556,0.998183,-5.76718,18.2419)">
                <path d="M325.242,50.062C325.367,49.793 325.477,49.613 325.602,49.539C325.676,49.449 325.727,49.469 325.766,49.594C325.816,49.703 325.816,49.898 325.766,50.168C325.492,52.402 324.863,54.398 323.875,56.145C322.867,57.91 321.785,58.793 320.617,58.793C319.34,58.828 318.348,58.16 317.684,56.793C317.016,55.426 316.727,53.59 316.816,51.285C316.926,48.441 318.023,44.246 320.094,38.738C321.895,33.898 323.441,30.477 324.773,28.445C325.367,27.543 325.746,27.074 325.945,27.039C325.98,27.184 325.816,27.723 325.422,28.605C322.488,35.141 320.598,40.414 319.734,44.426C319.375,46.031 319.211,47.488 319.211,48.766C319.211,50.566 319.535,51.914 320.203,52.816C320.707,53.555 321.227,53.859 321.785,53.75C322.922,53.52 324.07,52.293 325.242,50.062Z" style="fill:rgb(0,179,206);fill-rule:nonzero;"/>
            </g>
            <g transform="matrix(0.998183,-0.0602556,0.0602556,0.998183,-5.76718,18.2419)">
                <path d="M369.16,42.934C369.16,45.094 368.262,47.543 366.48,50.297C364.66,53.176 362.32,55.641 359.441,57.676C358.289,58.469 357.625,58.883 357.406,58.883C357.371,58.883 357.355,58.844 357.355,58.809C357.355,58.648 357.84,58.035 358.813,56.973C363.547,51.809 365.922,48.352 365.922,46.605C365.922,44.949 365.148,44.141 363.637,44.141C362.789,44.141 362.016,44.375 361.352,44.84C360.828,45.184 360.523,45.363 360.395,45.398C360.305,45.328 360.199,45.254 360.07,45.219C360.109,45.059 360.199,44.609 360.324,43.887C361.098,40.324 362.863,38.559 365.652,38.559C367.992,38.559 369.16,40.02 369.16,42.934Z" style="fill:rgb(154,76,183);fill-rule:nonzero;"/>
            </g>
            <g transform="matrix(0.998183,-0.0602556,0.0602556,0.998183,-5.76718,18.2419)">
                <path d="M260.676,142.258C260.676,144.633 259.867,146.902 258.265,149.062C256.519,151.383 254.504,152.555 252.16,152.555C249.77,152.555 248.563,151.383 248.563,149.062C248.563,147.352 249.496,144.887 251.406,141.645C253.313,138.422 254.934,136.805 256.285,136.805C257.472,136.805 258.496,137.309 259.363,138.352C260.226,139.395 260.676,140.691 260.676,142.258ZM258.59,144.922C258.59,142.727 257.074,141.629 254.07,141.629C253.656,141.629 252.938,142.312 251.945,143.68C250.957,145.066 250.453,146.02 250.453,146.578C250.793,147.332 251.91,147.73 253.816,147.73C256.984,147.73 258.59,146.793 258.59,144.922Z" style="fill:rgb(255,176,0);fill-rule:nonzero;"/>
            </g>
            <g transform="matrix(0.998183,-0.0602556,0.0602556,0.998183,-5.76718,18.2419)">
                <path d="M235.945,43.816C243.484,39.242 253.441,34.223 265.844,28.77C276.75,23.945 282.797,21.531 283.984,21.531C284.113,21.566 284.164,21.676 284.164,21.836C284.164,22.305 283.859,23.098 283.246,24.195C282.637,25.293 282.133,25.906 281.754,26.031C278.172,27.344 271.223,30.477 260.945,35.426C249.48,40.973 240.445,45.687 233.801,49.594C234.18,47.902 234.898,45.977 235.945,43.816Z" style="fill:rgb(154,76,183);fill-rule:nonzero;"/>
            </g>
            <g transform="matrix(0.998183,-0.0602556,0.0602556,0.998183,-5.76718,18.2419)">
                <path d="M199.152,164.937C207.898,164.867 217.387,164.777 227.609,164.687C228.328,164.668 228.742,164.703 228.836,164.828C228.941,165.008 228.797,165.332 228.367,165.801C227.035,167.312 226.098,168.176 225.523,168.395C216.938,168.43 206.82,168.879 195.211,169.762C196.219,168.23 197.531,166.629 199.152,164.937Z" style="fill:rgb(0,179,206);fill-rule:nonzero;"/>
            </g>
            <g transform="matrix(0.998183,-0.0602556,0.0602556,0.998183,-5.76718,18.2419)">
                <path d="M221.074,62.52C221.074,61.492 219.223,59.926 215.496,57.836C214.363,60.035 213.785,61.996 213.785,63.758C213.785,64.875 214.309,65.434 215.336,65.434C216.27,65.434 217.352,65.109 218.555,64.461C219.781,63.812 220.625,63.164 221.074,62.52ZM217.223,48.281C217.727,47.344 218.285,46.895 218.934,46.895C219.328,46.895 219.527,47.074 219.527,47.414C219.527,47.559 219.492,47.703 219.422,47.848C218.699,49.469 218.051,51.16 217.441,52.961C221.184,55.715 222.949,58.469 222.695,61.223C222.445,64.191 222.031,66.062 221.453,66.82C219.816,69.035 217.781,70.148 215.336,70.148C212.977,70.148 211.805,68.711 211.805,65.848C211.805,65.199 211.879,64.496 212.004,63.742C212.941,58.199 214.688,53.051 217.223,48.281Z" style="fill:rgb(255,97,6);fill-rule:nonzero;"/>
            </g>
            <g transform="matrix(0.998183,-0.0602556,0.0602556,0.998183,-5.76718,18.9282)">
                <path d="M357.805,170.355C357.516,170.32 357.316,170.266 357.211,170.176C357.102,170.121 357.102,170.066 357.211,169.996C357.316,169.906 357.496,169.852 357.77,169.816C359.98,169.418 362.07,169.457 364.051,169.887C366.012,170.32 367.184,171.113 367.523,172.227C367.938,173.453 367.578,174.566 366.461,175.613C365.363,176.637 363.691,177.465 361.457,178.059C358.688,178.781 354.383,178.961 348.496,178.602C343.352,178.293 339.605,177.809 337.266,177.125C336.238,176.836 335.664,176.602 335.574,176.422C335.719,176.332 336.277,176.352 337.246,176.457C344.34,177.359 349.938,177.609 354.043,177.27C355.68,177.125 357.102,176.871 358.344,176.492C360.055,175.973 361.242,175.25 361.906,174.371C362.484,173.668 362.629,173.074 362.359,172.57C361.801,171.562 360.289,170.824 357.805,170.355Z" style="fill:rgb(0,205,177);fill-rule:nonzero;"/>
            </g>
            <g transform="matrix(0.998183,-0.0602556,0.0602556,0.998183,-5.76718,18.2419)">
                <path d="M251.461,115.562C252.27,115.562 253.027,115.203 253.746,114.52C254.574,113.727 254.988,112.719 254.988,111.516C254.988,110.199 254.23,109.535 252.758,109.535C252.09,109.535 251.516,109.73 251.027,110.145C251.027,109.371 251.566,108.164 252.664,106.527C253.637,105.016 254.609,103.809 255.582,102.926C255.816,102.676 255.887,102.441 255.797,102.242C255.742,102.062 255.582,102.062 255.328,102.207C254.07,102.98 252.719,104.422 251.297,106.547C249.66,108.922 248.852,110.957 248.852,112.684C248.852,114.59 249.715,115.562 251.461,115.562Z" style="fill:rgb(255,97,6);fill-rule:nonzero;"/>
            </g>
            <g transform="matrix(1.13157,-0.0683073,0.0683073,1.13157,-45.529,3.91601)">
                <path d="M287.695,163.535C288.613,163.535 289.457,163.137 290.285,162.344C291.223,161.445 291.691,160.312 291.691,158.945C291.691,157.434 290.844,156.695 289.152,156.695C288.414,156.695 287.766,156.91 287.207,157.379C287.207,156.496 287.82,155.129 289.063,153.273C290.16,151.547 291.277,150.176 292.375,149.168C292.645,148.863 292.715,148.613 292.625,148.379C292.555,148.18 292.375,148.18 292.086,148.34C290.645,149.207 289.117,150.863 287.496,153.273C285.641,155.973 284.723,158.297 284.723,160.258C284.723,162.437 285.715,163.535 287.695,163.535Z" style="fill:rgb(255,97,6);fill-rule:nonzero;"/>
            </g>
            <g transform="matrix(0.998183,-0.0602556,0.0602556,0.998183,-5.76718,18.2419)">
                <path d="M207.883,88.547C207.883,90.203 207.199,92.09 205.828,94.215C204.426,96.43 202.625,98.32 200.41,99.887C199.531,100.496 199.008,100.82 198.848,100.82C198.809,100.82 198.809,100.805 198.809,100.77C198.809,100.641 199.172,100.156 199.926,99.344C203.563,95.367 205.398,92.723 205.398,91.371C205.398,90.113 204.805,89.48 203.633,89.48C202.984,89.48 202.391,89.66 201.871,90.023C201.492,90.273 201.238,90.418 201.148,90.453C201.078,90.383 201.008,90.344 200.898,90.309C200.934,90.184 201.008,89.84 201.098,89.285C201.691,86.547 203.039,85.18 205.199,85.18C206.98,85.18 207.883,86.297 207.883,88.547Z" style="fill:rgb(154,76,183);fill-rule:nonzero;"/>
            </g>
            <g transform="matrix(0.998183,-0.0602556,0.0602556,0.998183,-5.76718,18.2419)">
                <path d="M320.707,137.289C320.777,137.129 320.832,137.02 320.902,136.984C320.957,136.93 320.992,136.949 321.012,137C321.047,137.074 321.047,137.199 321.012,137.363C320.852,138.695 320.473,139.898 319.879,140.961C319.285,142.004 318.637,142.547 317.914,142.547C317.16,142.562 316.566,142.168 316.172,141.34C315.773,140.531 315.594,139.414 315.648,138.047C315.703,136.355 316.223,134.176 317.18,131.531C318.008,129.281 318.727,127.695 319.355,126.777C319.77,126.254 320.004,125.969 320.059,125.949C320.094,126.039 319.984,126.344 319.754,126.887C318.348,130.035 317.465,132.934 317.105,135.578C317.07,135.887 317.051,136.191 317.051,136.496C317.051,138.605 317.574,139.613 318.617,139.523C319.266,139.449 319.949,138.711 320.707,137.289Z" style="fill:rgb(255,176,0);fill-rule:nonzero;"/>
            </g>
            <g transform="matrix(0.998183,-0.0602556,0.0602556,0.998183,-5.76718,18.2419)">
                <path d="M176.543,119.703C177.191,119.703 177.82,119.414 178.398,118.859C179.082,118.191 179.426,117.383 179.426,116.391C179.426,115.312 178.813,114.773 177.59,114.773C177.047,114.773 176.578,114.934 176.184,115.277C176.184,114.629 176.633,113.656 177.516,112.324C178.324,111.082 179.117,110.09 179.91,109.371C180.09,109.156 180.16,108.977 180.09,108.812C180.035,108.668 179.91,108.652 179.695,108.777C178.668,109.406 177.57,110.578 176.398,112.324C175.066,114.27 174.402,115.941 174.402,117.344C174.402,118.91 175.105,119.703 176.543,119.703Z" style="fill:rgb(0,179,206);fill-rule:nonzero;"/>
            </g>
            <g transform="matrix(0.998183,-0.0602556,0.0602556,0.998183,-5.76718,18.2419)">
                <path d="M175.535,82.301C175.609,82.137 175.66,82.031 175.734,81.992C175.789,81.941 175.824,81.957 175.844,82.012C175.879,82.082 175.879,82.211 175.844,82.371C175.68,83.703 175.301,84.91 174.707,85.973C174.113,87.016 173.465,87.555 172.746,87.555C171.988,87.574 171.395,87.176 171,86.352C170.605,85.539 170.426,84.422 170.477,83.055C170.531,81.363 171.055,79.187 172.008,76.539C172.836,74.289 173.555,72.707 174.188,71.789C174.602,71.266 174.836,70.977 174.887,70.961C174.926,71.051 174.816,71.355 174.582,71.895C173.18,75.047 172.297,77.945 171.938,80.59C171.898,80.895 171.883,81.203 171.883,81.508C171.883,83.613 172.402,84.621 173.449,84.531C174.098,84.461 174.781,83.723 175.535,82.301Z" style="fill:rgb(0,205,177);fill-rule:nonzero;"/>
            </g>
            <g transform="matrix(0.998183,-0.0602556,0.0602556,0.998183,-5.76718,18.2419)">
                <path d="M347.438,103.719C347.527,103.539 347.617,103.395 347.707,103.324C347.777,103.25 347.832,103.27 347.832,103.359C347.867,103.449 347.867,103.594 347.832,103.793C347.039,108.113 345.742,110.273 343.961,110.273C342.055,110.273 341.117,108.687 341.117,105.52C341.117,101.633 342.234,97.547 344.484,93.262C345.043,92.199 345.383,91.66 345.512,91.641C345.527,91.641 345.547,91.641 345.547,91.676C345.547,91.875 345.383,92.488 345.059,93.477C343.602,97.922 342.883,101.055 342.883,102.836C342.883,105.27 343.531,106.492 344.844,106.492C345.602,106.492 346.465,105.555 347.438,103.719Z" style="fill:rgb(255,97,6);fill-rule:nonzero;"/>
            </g>
            <g transform="matrix(0.999759,-0.0219534,-0.0219534,-0.999759,12.0965,354.652)">
                <path d="M311.348,177.609C308.051,176.961 304.094,175.648 299.465,173.668C295.867,172.137 292.246,171.293 288.648,171.164C281.773,170.934 275.039,173.867 268.488,179.984C267.984,180.473 267.445,180.527 266.867,180.164L263.07,177.824C262.727,177.629 262.746,177.305 263.09,176.871C268.543,170.715 276.137,167.816 285.895,168.16C290.574,168.32 295.508,169.508 300.672,171.742C305.84,173.973 309.438,175.125 311.438,175.199C315.484,175.34 317.539,174.316 317.609,172.121C317.664,170.859 316.172,169.367 313.164,167.637C312.875,167.492 312.66,167.332 312.516,167.187C312.426,167.043 312.445,166.973 312.605,166.973C312.75,166.918 312.984,166.937 313.324,166.988C320.453,168.555 323.965,170.824 323.875,173.812C323.766,176.816 320.777,178.238 314.93,178.023C313.758,177.988 312.57,177.844 311.348,177.609Z" style="fill:rgb(255,176,0);fill-rule:nonzero;"/>
            </g>
            <g transform="matrix(0.998183,-0.0602556,0.0602556,0.998183,-5.76718,18.2419)">
                <path d="M346.934,124.402C346.934,125.609 346.43,126.957 345.457,128.488C344.449,130.07 343.133,131.441 341.551,132.555C340.922,133.004 340.543,133.238 340.414,133.238C340.398,133.238 340.398,133.223 340.398,133.203C340.398,133.094 340.668,132.773 341.191,132.176C343.816,129.316 345.133,127.406 345.133,126.453C345.133,125.535 344.699,125.086 343.855,125.086C343.402,125.086 342.973,125.211 342.594,125.465C342.324,125.645 342.145,125.75 342.07,125.77C342.035,125.734 341.965,125.699 341.891,125.68C341.93,125.57 341.965,125.336 342.035,124.941C342.469,122.961 343.441,121.988 344.988,121.988C346.285,121.988 346.934,122.801 346.934,124.402Z" style="fill:rgb(0,179,206);fill-rule:nonzero;"/>
            </g>
            <g transform="matrix(0.998183,-0.0602556,0.0602556,0.998183,-5.76718,18.2419)">
                <path d="M306.18,68.078C306.828,68.078 307.457,67.793 308.035,67.234C308.719,66.566 309.059,65.758 309.059,64.77C309.059,63.687 308.449,63.148 307.223,63.148C306.684,63.148 306.215,63.309 305.82,63.652C305.82,63.004 306.27,62.031 307.152,60.699C307.961,59.457 308.754,58.469 309.547,57.746C309.727,57.531 309.797,57.352 309.727,57.191C309.672,57.047 309.547,57.027 309.328,57.152C308.305,57.785 307.207,58.953 306.035,60.699C304.703,62.645 304.039,64.316 304.039,65.723C304.039,67.289 304.738,68.078 306.18,68.078Z" style="fill:rgb(255,97,6);fill-rule:nonzero;"/>
            </g>
            <g transform="matrix(0.998183,-0.0602556,0.0602556,0.998183,-5.76718,18.2419)">
                <path d="M313.543,91.082C313.543,92.414 312.984,93.926 311.902,95.621C310.77,97.383 309.328,98.895 307.566,100.137C306.863,100.641 306.449,100.895 306.324,100.895C306.289,100.895 306.289,100.875 306.289,100.84C306.289,100.75 306.574,100.371 307.172,99.723C310.086,96.539 311.543,94.414 311.543,93.352C311.543,92.344 311.074,91.84 310.141,91.84C309.617,91.84 309.148,91.984 308.734,92.254C308.43,92.469 308.23,92.578 308.16,92.613C308.105,92.559 308.035,92.523 307.961,92.488C307.98,92.398 308.035,92.109 308.105,91.676C308.574,89.48 309.672,88.402 311.383,88.402C312.82,88.402 313.543,89.285 313.543,91.082Z" style="fill:rgb(154,76,183);fill-rule:nonzero;"/>
            </g>
            <g transform="matrix(0.998183,-0.0602556,0.0602556,0.998183,-5.76718,18.2419)">
                <path d="M284.398,97.258C285.121,97.258 285.82,96.934 286.469,96.305C287.227,95.582 287.605,94.664 287.605,93.566C287.605,92.379 286.922,91.77 285.57,91.77C284.977,91.77 284.453,91.949 284.004,92.324C284.004,91.625 284.508,90.527 285.496,89.031C286.379,87.664 287.262,86.566 288.145,85.754C288.359,85.523 288.414,85.324 288.344,85.145C288.289,84.98 288.145,84.965 287.91,85.109C286.758,85.809 285.535,87.125 284.238,89.051C282.762,91.211 282.023,93.062 282.023,94.629C282.023,96.375 282.816,97.258 284.398,97.258Z" style="fill:rgb(0,179,206);fill-rule:nonzero;"/>
            </g>
        </g>
    </g>
</svg>
